M48
; DRILL file {KiCad 9.0.6} date 2025-11-02T21:38:25+0530
; FORMAT={-:-/ absolute / metric / decimal}
; #@! TF.CreationDate,2025-11-02T21:38:25+05:30
; #@! TF.GenerationSoftware,Kicad,Pcbnew,9.0.6
; #@! TF.FileFunction,Plated,1,2,PTH
FMAT,2
METRIC
; #@! TA.AperFunction,Plated,PTH,ViaDrill
T1C0.300
; #@! TA.AperFunction,Plated,PTH,ViaDrill
T2C0.400
; #@! TA.AperFunction,Plated,PTH,ComponentDrill
T3C0.600
; #@! TA.AperFunction,Plated,PTH,ComponentDrill
T4C1.750
%
G90
G05
T1
X141.537Y-95.0
X141.85Y-101.5
X144.058Y-100.177
X145.25Y-92.688
X147.15Y-101.5
X147.175Y-104.25
X147.463Y-95.0
X150.375Y-105.875
X151.545Y-105.218
X152.0Y-92.0
X152.0Y-96.0
X152.25Y-102.25
X154.753Y-98.904
X154.767Y-101.896
X156.05Y-93.55
X156.05Y-95.25
X156.15Y-91.75
X159.35Y-91.75
X164.25Y-102.15
X166.92Y-97.5
X166.92Y-98.5
T2
X165.2Y-95.2
T4
X136.46Y-92.6
X136.46Y-98.0
X136.46Y-103.4
T3
G00X166.7Y-93.68
M15
G01X167.3Y-93.68
M16
G05
G00X166.7Y-102.32
M15
G01X167.3Y-102.32
M16
G05
G00X170.5Y-93.68
M15
G01X171.1Y-93.68
M16
G05
G00X170.5Y-102.32
M15
G01X171.1Y-102.32
M16
G05
M30
