%TF.GenerationSoftware,KiCad,Pcbnew,9.0.6*%
%TF.CreationDate,2025-11-02T21:38:21+05:30*%
%TF.ProjectId,Helmet_bt_headset,48656c6d-6574-45f6-9274-5f6865616473,rev?*%
%TF.SameCoordinates,Original*%
%TF.FileFunction,Copper,L1,Top*%
%TF.FilePolarity,Positive*%
%FSLAX46Y46*%
G04 Gerber Fmt 4.6, Leading zero omitted, Abs format (unit mm)*
G04 Created by KiCad (PCBNEW 9.0.6) date 2025-11-02 21:38:21*
%MOMM*%
%LPD*%
G01*
G04 APERTURE LIST*
G04 Aperture macros list*
%AMRoundRect*
0 Rectangle with rounded corners*
0 $1 Rounding radius*
0 $2 $3 $4 $5 $6 $7 $8 $9 X,Y pos of 4 corners*
0 Add a 4 corners polygon primitive as box body*
4,1,4,$2,$3,$4,$5,$6,$7,$8,$9,$2,$3,0*
0 Add four circle primitives for the rounded corners*
1,1,$1+$1,$2,$3*
1,1,$1+$1,$4,$5*
1,1,$1+$1,$6,$7*
1,1,$1+$1,$8,$9*
0 Add four rect primitives between the rounded corners*
20,1,$1+$1,$2,$3,$4,$5,0*
20,1,$1+$1,$4,$5,$6,$7,0*
20,1,$1+$1,$6,$7,$8,$9,0*
20,1,$1+$1,$8,$9,$2,$3,0*%
G04 Aperture macros list end*
%TA.AperFunction,ComponentPad*%
%ADD10C,2.750000*%
%TD*%
%TA.AperFunction,ComponentPad*%
%ADD11RoundRect,0.250000X-1.125000X1.125000X-1.125000X-1.125000X1.125000X-1.125000X1.125000X1.125000X0*%
%TD*%
%TA.AperFunction,SMDPad,CuDef*%
%ADD12RoundRect,0.250000X0.650000X-0.325000X0.650000X0.325000X-0.650000X0.325000X-0.650000X-0.325000X0*%
%TD*%
%TA.AperFunction,SMDPad,CuDef*%
%ADD13RoundRect,0.250000X-0.362500X-1.425000X0.362500X-1.425000X0.362500X1.425000X-0.362500X1.425000X0*%
%TD*%
%TA.AperFunction,SMDPad,CuDef*%
%ADD14RoundRect,0.250000X0.750000X1.275000X-0.750000X1.275000X-0.750000X-1.275000X0.750000X-1.275000X0*%
%TD*%
%TA.AperFunction,SMDPad,CuDef*%
%ADD15RoundRect,0.200000X0.200000X0.275000X-0.200000X0.275000X-0.200000X-0.275000X0.200000X-0.275000X0*%
%TD*%
%TA.AperFunction,SMDPad,CuDef*%
%ADD16RoundRect,0.200000X-0.200000X-0.275000X0.200000X-0.275000X0.200000X0.275000X-0.200000X0.275000X0*%
%TD*%
%TA.AperFunction,SMDPad,CuDef*%
%ADD17RoundRect,0.135000X-0.135000X-0.185000X0.135000X-0.185000X0.135000X0.185000X-0.135000X0.185000X0*%
%TD*%
%TA.AperFunction,SMDPad,CuDef*%
%ADD18RoundRect,0.250000X0.650000X-1.000000X0.650000X1.000000X-0.650000X1.000000X-0.650000X-1.000000X0*%
%TD*%
%TA.AperFunction,SMDPad,CuDef*%
%ADD19R,1.000000X1.600000*%
%TD*%
%TA.AperFunction,SMDPad,CuDef*%
%ADD20RoundRect,0.225000X0.225000X0.250000X-0.225000X0.250000X-0.225000X-0.250000X0.225000X-0.250000X0*%
%TD*%
%TA.AperFunction,SMDPad,CuDef*%
%ADD21RoundRect,0.225000X-0.225000X-0.250000X0.225000X-0.250000X0.225000X0.250000X-0.225000X0.250000X0*%
%TD*%
%TA.AperFunction,SMDPad,CuDef*%
%ADD22RoundRect,0.140000X0.170000X-0.140000X0.170000X0.140000X-0.170000X0.140000X-0.170000X-0.140000X0*%
%TD*%
%TA.AperFunction,SMDPad,CuDef*%
%ADD23RoundRect,0.250000X0.250000X0.475000X-0.250000X0.475000X-0.250000X-0.475000X0.250000X-0.475000X0*%
%TD*%
%TA.AperFunction,SMDPad,CuDef*%
%ADD24RoundRect,0.045000X-0.230000X0.105000X-0.230000X-0.105000X0.230000X-0.105000X0.230000X0.105000X0*%
%TD*%
%TA.AperFunction,SMDPad,CuDef*%
%ADD25RoundRect,0.045000X-0.105000X-0.230000X0.105000X-0.230000X0.105000X0.230000X-0.105000X0.230000X0*%
%TD*%
%TA.AperFunction,SMDPad,CuDef*%
%ADD26RoundRect,0.045000X0.230000X-0.105000X0.230000X0.105000X-0.230000X0.105000X-0.230000X-0.105000X0*%
%TD*%
%TA.AperFunction,SMDPad,CuDef*%
%ADD27RoundRect,0.045000X0.105000X0.230000X-0.105000X0.230000X-0.105000X-0.230000X0.105000X-0.230000X0*%
%TD*%
%TA.AperFunction,SMDPad,CuDef*%
%ADD28R,2.100000X2.100000*%
%TD*%
%TA.AperFunction,SMDPad,CuDef*%
%ADD29RoundRect,0.175000X0.425000X-0.175000X0.425000X0.175000X-0.425000X0.175000X-0.425000X-0.175000X0*%
%TD*%
%TA.AperFunction,SMDPad,CuDef*%
%ADD30RoundRect,0.190000X-0.410000X0.190000X-0.410000X-0.190000X0.410000X-0.190000X0.410000X0.190000X0*%
%TD*%
%TA.AperFunction,SMDPad,CuDef*%
%ADD31RoundRect,0.200000X-0.400000X0.200000X-0.400000X-0.200000X0.400000X-0.200000X0.400000X0.200000X0*%
%TD*%
%TA.AperFunction,SMDPad,CuDef*%
%ADD32RoundRect,0.175000X-0.425000X0.175000X-0.425000X-0.175000X0.425000X-0.175000X0.425000X0.175000X0*%
%TD*%
%TA.AperFunction,SMDPad,CuDef*%
%ADD33RoundRect,0.190000X0.410000X-0.190000X0.410000X0.190000X-0.410000X0.190000X-0.410000X-0.190000X0*%
%TD*%
%TA.AperFunction,SMDPad,CuDef*%
%ADD34RoundRect,0.200000X0.400000X-0.200000X0.400000X0.200000X-0.400000X0.200000X-0.400000X-0.200000X0*%
%TD*%
%TA.AperFunction,HeatsinkPad*%
%ADD35O,1.700000X1.100000*%
%TD*%
%TA.AperFunction,ViaPad*%
%ADD36C,0.800000*%
%TD*%
%TA.AperFunction,ViaPad*%
%ADD37C,0.600000*%
%TD*%
%TA.AperFunction,Conductor*%
%ADD38C,0.800000*%
%TD*%
%TA.AperFunction,Conductor*%
%ADD39C,0.200000*%
%TD*%
%TA.AperFunction,Conductor*%
%ADD40C,0.400000*%
%TD*%
%TA.AperFunction,Conductor*%
%ADD41C,0.600000*%
%TD*%
G04 APERTURE END LIST*
D10*
%TO.P,J1,3,Pin_3*%
%TO.N,Net-(J1-Pin_3)*%
X136460000Y-103400000D03*
%TO.P,J1,2,Pin_2*%
%TO.N,Net-(J1-Pin_2)*%
X136460000Y-98000000D03*
D11*
%TO.P,J1,1,Pin_1*%
%TO.N,GND*%
X136460000Y-92600000D03*
%TD*%
D12*
%TO.P,C7,2*%
%TO.N,GND*%
X164250000Y-102150000D03*
%TO.P,C7,1*%
%TO.N,Net-(U1-VS)*%
X164250000Y-105100000D03*
%TD*%
D13*
%TO.P,R4,2*%
%TO.N,Net-(J1-Pin_3)*%
X147462500Y-95000000D03*
%TO.P,R4,1*%
%TO.N,Net-(U1-VS)*%
X141537500Y-95000000D03*
%TD*%
D14*
%TO.P,L1,2,2*%
%TO.N,Net-(U1-VS)*%
X141850000Y-101500000D03*
%TO.P,L1,1,1*%
%TO.N,Net-(D2-K)*%
X147150000Y-101500000D03*
%TD*%
D15*
%TO.P,R6,1*%
%TO.N,Net-(U1-RTRICK)*%
X142825000Y-91500000D03*
%TO.P,R6,2*%
%TO.N,GND*%
X141175000Y-91500000D03*
%TD*%
D16*
%TO.P,R5,1*%
%TO.N,Net-(U1-VREG)*%
X147675000Y-91500000D03*
%TO.P,R5,2*%
%TO.N,Net-(J1-Pin_2)*%
X149325000Y-91500000D03*
%TD*%
D17*
%TO.P,R3,1*%
%TO.N,Net-(D2-K)*%
X155740000Y-99250000D03*
%TO.P,R3,2*%
%TO.N,Net-(C5-Pad1)*%
X156760000Y-99250000D03*
%TD*%
D18*
%TO.P,D2,1,K*%
%TO.N,Net-(D2-K)*%
X152000000Y-96000000D03*
%TO.P,D2,2,A*%
%TO.N,GND*%
X152000000Y-92000000D03*
%TD*%
D19*
%TO.P,D1,1,RK*%
%TO.N,Net-(D1-RK)*%
X159350000Y-91750000D03*
%TO.P,D1,2,A*%
%TO.N,Net-(D1-A)*%
X159350000Y-96750000D03*
%TO.P,D1,3,BK*%
%TO.N,unconnected-(D1-BK-Pad3)*%
X156150000Y-96750000D03*
%TO.P,D1,4,GK*%
%TO.N,Net-(D1-GK)*%
X156150000Y-91750000D03*
%TD*%
D20*
%TO.P,C10,1*%
%TO.N,Net-(U1-VREG)*%
X146025000Y-91500000D03*
%TO.P,C10,2*%
%TO.N,GND*%
X144475000Y-91500000D03*
%TD*%
D12*
%TO.P,C9,1*%
%TO.N,Net-(J1-Pin_3)*%
X158000000Y-105100000D03*
%TO.P,C9,2*%
%TO.N,GND*%
X158000000Y-102150000D03*
%TD*%
D21*
%TO.P,C8,1*%
%TO.N,Net-(J1-Pin_3)*%
X160475000Y-102375000D03*
%TO.P,C8,2*%
%TO.N,GND*%
X162025000Y-102375000D03*
%TD*%
%TO.P,C6,1*%
%TO.N,Net-(U1-VS)*%
X160475000Y-104375000D03*
%TO.P,C6,2*%
%TO.N,GND*%
X162025000Y-104375000D03*
%TD*%
%TO.P,C5,1*%
%TO.N,Net-(C5-Pad1)*%
X158475000Y-99250000D03*
%TO.P,C5,2*%
%TO.N,GND*%
X160025000Y-99250000D03*
%TD*%
D22*
%TO.P,C4,1*%
%TO.N,Net-(D1-A)*%
X164000000Y-99970000D03*
%TO.P,C4,2*%
%TO.N,GND*%
X164000000Y-99010000D03*
%TD*%
%TO.P,C3,1*%
%TO.N,Net-(D1-A)*%
X162030000Y-99970000D03*
%TO.P,C3,2*%
%TO.N,GND*%
X162030000Y-99010000D03*
%TD*%
D23*
%TO.P,C2,1*%
%TO.N,Net-(D1-A)*%
X164000000Y-97000000D03*
%TO.P,C2,2*%
%TO.N,GND*%
X162100000Y-97000000D03*
%TD*%
%TO.P,C1,1*%
%TO.N,Net-(D1-A)*%
X164000000Y-93990000D03*
%TO.P,C1,2*%
%TO.N,GND*%
X162100000Y-93990000D03*
%TD*%
D24*
%TO.P,U1,1,VIN*%
%TO.N,Net-(D1-A)*%
X153975000Y-101325000D03*
%TO.P,U1,2,LX*%
%TO.N,Net-(D2-K)*%
X153975000Y-101975000D03*
%TO.P,U1,3,LX*%
X153975000Y-102625000D03*
%TO.P,U1,4,VIN*%
%TO.N,Net-(D1-A)*%
X153975000Y-103275000D03*
D25*
%TO.P,U1,5,VIN*%
X153225000Y-103975000D03*
%TO.P,U1,6,PWR_ON-*%
%TO.N,unconnected-(U1-PWR_ON--Pad6)*%
X152575000Y-103975000D03*
%TO.P,U1,7,GND*%
%TO.N,GND*%
X151925000Y-103975000D03*
%TO.P,U1,8,VS*%
%TO.N,Net-(U1-VS)*%
X151275000Y-103975000D03*
D26*
%TO.P,U1,9,BAT*%
%TO.N,Net-(J1-Pin_3)*%
X150525000Y-103275000D03*
%TO.P,U1,10,VREG*%
%TO.N,Net-(U1-VREG)*%
X150525000Y-102625000D03*
%TO.P,U1,11,TS*%
%TO.N,Net-(J1-Pin_2)*%
X150525000Y-101975000D03*
%TO.P,U1,12,RTRICK*%
%TO.N,Net-(U1-RTRICK)*%
X150525000Y-101325000D03*
D27*
%TO.P,U1,13,CS*%
%TO.N,unconnected-(U1-CS-Pad13)*%
X151275000Y-100525000D03*
%TO.P,U1,14,STDBY*%
%TO.N,Net-(U1-STDBY)*%
X151925000Y-100525000D03*
%TO.P,U1,15,CHRG*%
%TO.N,Net-(U1-CHRG)*%
X152575000Y-100525000D03*
%TO.P,U1,16,VIN*%
%TO.N,Net-(D1-A)*%
X153225000Y-100525000D03*
D28*
%TO.P,U1,EP*%
%TO.N,GND*%
X152250000Y-102250000D03*
%TD*%
D29*
%TO.P,J2,A5,CC1*%
%TO.N,Net-(J2-CC1)*%
X166920000Y-98500000D03*
D30*
%TO.P,J2,A9,VBUS*%
%TO.N,Net-(D1-A)*%
X166920000Y-96480000D03*
D31*
%TO.P,J2,A12,GND*%
%TO.N,GND*%
X166920000Y-95250000D03*
D32*
%TO.P,J2,B5,CC2*%
%TO.N,Net-(J2-CC2)*%
X166920000Y-97500000D03*
D33*
%TO.P,J2,B9,VBUS*%
%TO.N,Net-(D1-A)*%
X166920000Y-99520000D03*
D34*
%TO.P,J2,B12,GND*%
%TO.N,GND*%
X166920000Y-100750000D03*
D35*
%TO.P,J2,S1,SHIELD*%
%TO.N,Net-(J2-SHIELD)*%
X167000000Y-102320000D03*
X170800000Y-102320000D03*
X167000000Y-93680000D03*
X170800000Y-93680000D03*
%TD*%
D36*
%TO.N,GND*%
X165200000Y-95200000D03*
D37*
%TO.N,Net-(U1-VS)*%
X150375000Y-105875000D03*
%TO.N,Net-(J1-Pin_3)*%
X147462500Y-95000000D03*
X147175000Y-104250000D03*
%TO.N,GND*%
X152000000Y-92000000D03*
X164250000Y-102150000D03*
D36*
X152250000Y-102250000D03*
D37*
%TO.N,Net-(D2-K)*%
X147150000Y-101500000D03*
X152000000Y-96000000D03*
%TO.N,Net-(U1-VS)*%
X141850000Y-101500000D03*
X141537500Y-95000000D03*
%TO.N,Net-(J1-Pin_3)*%
X151545100Y-105218400D03*
%TO.N,Net-(J2-CC1)*%
X166920000Y-98500000D03*
%TO.N,Net-(J2-CC2)*%
X166920000Y-97500000D03*
%TO.N,Net-(U1-STDBY)*%
X156050000Y-93550000D03*
%TO.N,Net-(U1-CHRG)*%
X156050000Y-95250000D03*
%TO.N,Net-(D2-K)*%
X154766900Y-101896200D03*
X154753100Y-98904500D03*
%TO.N,Net-(D1-GK)*%
X156150000Y-91750000D03*
%TO.N,Net-(D1-RK)*%
X159350000Y-91750000D03*
%TO.N,Net-(U1-VREG)*%
X144058000Y-100176600D03*
X145250400Y-92687900D03*
%TD*%
D38*
%TO.N,Net-(D1-A)*%
X163105000Y-99980000D02*
X163105000Y-99980000D01*
X164701464Y-99970000D02*
X164238535Y-99970000D01*
X165257500Y-99970000D02*
X164942500Y-99970000D01*
X163035000Y-99980000D02*
X163105000Y-99980000D01*
X163105000Y-99980000D02*
X163035000Y-99980000D01*
D39*
%TO.N,GND*%
X162025000Y-102375000D02*
X162025000Y-102568750D01*
X162025000Y-102181250D02*
X162025000Y-102375000D01*
X162025000Y-102762500D02*
X162025000Y-102956250D01*
X162025000Y-102035937D02*
X162025000Y-102132812D01*
X162025000Y-103700000D02*
X162025000Y-104150000D01*
X162025000Y-103004687D02*
X162025000Y-103295312D01*
X162025000Y-102568750D02*
X162025000Y-102762500D01*
%TO.N,Net-(J1-Pin_2)*%
X145539816Y-95055206D02*
G75*
G02*
X145557745Y-94928191I2270284J-255694D01*
G01*
X145653758Y-94555958D02*
G75*
G02*
X145699503Y-94436119I2157042J-754742D01*
G01*
X146150000Y-93622787D02*
G75*
G02*
X145995903Y-93994814I-526100J-13D01*
G01*
X145557745Y-94928191D02*
G75*
G02*
X145582768Y-94802382I2253955J-382909D01*
G01*
X145751893Y-94319032D02*
G75*
G02*
X145810766Y-94205066I2059207J-991568D01*
G01*
X148638171Y-98813171D02*
G75*
G03*
X147470084Y-98329357I-1168071J-1168129D01*
G01*
X145582768Y-94802382D02*
G75*
G02*
X145614806Y-94678174I2229432J-508818D01*
G01*
X145525000Y-95343330D02*
G75*
G02*
X145525220Y-95279168I9356500J30D01*
G01*
X145810768Y-94205067D02*
G75*
G02*
X145887161Y-94103529I397732J-219733D01*
G01*
X145653758Y-94555958D02*
G75*
G03*
X145614807Y-94678174I2158842J-755342D01*
G01*
X145699502Y-94436118D02*
G75*
G02*
X145751892Y-94319032I2111398J-874482D01*
G01*
X146325000Y-92900000D02*
G75*
G03*
X146149995Y-93322487I422500J-422500D01*
G01*
X146747487Y-92725000D02*
G75*
G03*
X146325004Y-92900004I13J-597500D01*
G01*
X145539816Y-95055206D02*
G75*
G03*
X145529036Y-95183025I2272184J-255994D01*
G01*
X147300000Y-92725000D02*
G75*
G03*
X148665692Y-92159321I0J1931400D01*
G01*
X145527239Y-95215055D02*
G75*
G03*
X145525221Y-95279168I1301261J-73045D01*
G01*
X148756894Y-98931894D02*
G75*
G02*
X149359456Y-100386604I-1454694J-1454706D01*
G01*
D40*
%TO.N,Net-(D1-A)*%
X165263639Y-97151361D02*
G75*
G03*
X164898221Y-96999991I-365439J-365439D01*
G01*
D38*
X165415000Y-97516778D02*
G75*
G03*
X165263633Y-97151367I-516800J-22D01*
G01*
X165415000Y-97516778D02*
G75*
G02*
X165566367Y-97151367I516800J-22D01*
G01*
D40*
X165263639Y-97151361D02*
G75*
G03*
X165566361Y-97151361I151361J151361D01*
G01*
D38*
X163210000Y-99980000D02*
X163210000Y-99980000D01*
X165996500Y-96721221D02*
G75*
G02*
X166578861Y-96479977I582400J-582379D01*
G01*
X163210000Y-99980000D02*
X163105000Y-99980000D01*
X163210000Y-99980000D02*
X163105000Y-99980000D01*
X164701464Y-99970000D02*
X164942500Y-99970000D01*
D39*
%TO.N,Net-(U1-RTRICK)*%
X149468063Y-90400000D02*
G75*
G02*
X150525000Y-91456937I37J-1056900D01*
G01*
X143806586Y-90400000D02*
G75*
G03*
X143112504Y-90687504I14J-981600D01*
G01*
X143010615Y-90789384D02*
G75*
G03*
X142824990Y-91237500I448085J-448116D01*
G01*
D40*
%TO.N,Net-(U1-VS)*%
X150728553Y-104521446D02*
G75*
G03*
X150374997Y-105375000I853547J-853554D01*
G01*
D39*
X150633114Y-106026200D02*
G75*
G02*
X150450596Y-105950604I-14J258100D01*
G01*
D38*
%TO.N,GND*%
X165860000Y-101175000D02*
G75*
G03*
X164775993Y-101624018I0J-1533000D01*
G01*
D40*
X162100000Y-91570710D02*
G75*
G02*
X162149997Y-91449997I170700J10D01*
G01*
X163800000Y-91400000D02*
G75*
G02*
X165400000Y-93000000I0J-1600000D01*
G01*
D38*
X166707500Y-100962500D02*
G75*
G02*
X166194479Y-101174992I-513000J513000D01*
G01*
D40*
X165400000Y-94858578D02*
G75*
G02*
X165300006Y-95100006I-341400J-22D01*
G01*
D38*
X165225000Y-95225000D02*
G75*
G03*
X165285355Y-95250018I60400J60400D01*
G01*
D39*
X166925500Y-100755500D02*
G75*
G03*
X166914500Y-100755500I-5500J-5497D01*
G01*
D40*
X162270710Y-91400000D02*
G75*
G03*
X162149997Y-91449997I-10J-170700D01*
G01*
D39*
X162025000Y-102181250D02*
X162025000Y-102132812D01*
X162025000Y-103700000D02*
X162025000Y-103295312D01*
D38*
X164775987Y-101624012D02*
X164250000Y-102150000D01*
X165860000Y-101175000D02*
X166194479Y-101175000D01*
X166707500Y-100962500D02*
X166914500Y-100755500D01*
D39*
%TO.N,Net-(J1-Pin_2)*%
X148756894Y-98931894D02*
X148638171Y-98813171D01*
X149359455Y-100386604D02*
X149359455Y-101670555D01*
X150094450Y-101975000D02*
X150525000Y-101975000D01*
X146785834Y-98329334D02*
G75*
G03*
X145990750Y-98000030I-795034J-795066D01*
G01*
X146785834Y-98329334D02*
X147470084Y-98329334D01*
X150094450Y-101975000D02*
G75*
G02*
X149359488Y-101670522I50J1039400D01*
G01*
%TO.N,Net-(U1-RTRICK)*%
X142825000Y-91237500D02*
X142825000Y-91500000D01*
X143010615Y-90789384D02*
X143112499Y-90687499D01*
X149468063Y-90400000D02*
X143806586Y-90400000D01*
X150525000Y-91456937D02*
X150525000Y-101325000D01*
%TO.N,Net-(J1-Pin_2)*%
X147300000Y-92725000D02*
X146747487Y-92725000D01*
X146150000Y-93622787D02*
X146150000Y-93322487D01*
X145887173Y-94103541D02*
X145995901Y-93994812D01*
X145527239Y-95215055D02*
X145529037Y-95183025D01*
X148665685Y-92159314D02*
X149325000Y-91500000D01*
X145525000Y-97534250D02*
X145525000Y-95343330D01*
D40*
%TO.N,Net-(U1-VS)*%
X150375000Y-105875000D02*
X150375000Y-105375000D01*
X150728553Y-104521446D02*
X151275000Y-103975000D01*
D39*
X150450600Y-105950600D02*
X150375000Y-105875000D01*
X150633114Y-106026200D02*
X158593869Y-106026200D01*
X159161359Y-105791138D02*
X160500674Y-104451825D01*
X159161359Y-105791138D02*
G75*
G02*
X158593869Y-106026164I-567459J567538D01*
G01*
D38*
%TO.N,GND*%
X165200000Y-95200000D02*
X165225000Y-95225000D01*
X165285355Y-95250000D02*
X166920000Y-95250000D01*
D40*
X165200000Y-95200000D02*
X165300000Y-95100000D01*
X165400000Y-94858578D02*
X165400000Y-93000000D01*
X162270710Y-91400000D02*
X163800000Y-91400000D01*
X162100000Y-91570710D02*
X162100000Y-93990000D01*
%TO.N,Net-(D1-A)*%
X164000000Y-97000000D02*
X164000000Y-93990000D01*
X164898221Y-97000000D02*
X164000000Y-97000000D01*
D38*
X166578861Y-96480000D02*
X166920000Y-96480000D01*
X165996500Y-96721221D02*
X165566360Y-97151360D01*
X165415000Y-97516778D02*
X165415000Y-99970000D01*
D39*
X155600000Y-102085108D02*
G75*
G02*
X155596416Y-102093778I-12300J8D01*
G01*
D38*
X163420000Y-99980000D02*
X163420000Y-99980000D01*
D39*
X155562291Y-101934887D02*
G75*
G02*
X155599967Y-102025924I-91091J-91013D01*
G01*
X155541706Y-101914302D02*
G75*
G02*
X155524596Y-101872960I41294J41302D01*
G01*
D38*
X163420000Y-99980000D02*
X163210000Y-99980000D01*
X163420000Y-99980000D02*
X163210000Y-99980000D01*
D39*
%TO.N,GND*%
X162025000Y-102956250D02*
X162025000Y-103004687D01*
%TO.N,Net-(D1-A)*%
X155525000Y-101815227D02*
X155525000Y-101061500D01*
X155524582Y-101872960D02*
X155524582Y-101848743D01*
X155541706Y-101914302D02*
X155562291Y-101934887D01*
X155600000Y-102025924D02*
X155600000Y-102085108D01*
X155592822Y-102097362D02*
X155596411Y-102093773D01*
X155600000Y-102258578D02*
X155600000Y-102148561D01*
X155470710Y-102529289D02*
X155500000Y-102500000D01*
X155097227Y-102702772D02*
X155129288Y-102670710D01*
X153250000Y-103975000D02*
X153225000Y-103975000D01*
X155525000Y-101815227D02*
G75*
G03*
X155524582Y-101848743I11546900J-160773D01*
G01*
X155592822Y-102097362D02*
G75*
G02*
X155599988Y-102148561I-191022J-52838D01*
G01*
X155600000Y-102258578D02*
G75*
G02*
X155500006Y-102500006I-341400J-22D01*
G01*
X153877772Y-103372227D02*
X153292677Y-103957322D01*
X154347227Y-103177772D02*
X154627771Y-102897227D01*
X155097227Y-102702772D02*
G75*
G02*
X154862499Y-102799986I-234727J234772D01*
G01*
X154862499Y-102800000D02*
G75*
G03*
X154627763Y-102897219I1J-332000D01*
G01*
X155129288Y-102670710D02*
G75*
G02*
X155300000Y-102599992I170712J-170690D01*
G01*
X155470710Y-102529289D02*
G75*
G02*
X155300000Y-102600006I-170710J170689D01*
G01*
X154347227Y-103177772D02*
G75*
G02*
X154112500Y-103274986I-234727J234772D01*
G01*
X153877772Y-103372227D02*
G75*
G02*
X154112500Y-103275013I234728J-234773D01*
G01*
X153292677Y-103957322D02*
G75*
G02*
X153250000Y-103974986I-42677J42722D01*
G01*
D38*
X163635000Y-99980000D02*
X163635000Y-99980000D01*
X163420000Y-99980000D02*
X163635000Y-99980000D01*
X163420000Y-99980000D02*
X163635000Y-99980000D01*
D39*
%TO.N,Net-(J1-Pin_2)*%
X145525000Y-97534250D02*
G75*
G02*
X145059250Y-98000000I-465800J50D01*
G01*
X145990750Y-98000000D02*
G75*
G02*
X145525000Y-97534250I50J465800D01*
G01*
X145990750Y-98000000D02*
X145059250Y-98000000D01*
%TO.N,Net-(J1-Pin_3)*%
X158000000Y-104975000D02*
G75*
G02*
X158088384Y-104761607I301800J0D01*
G01*
X157940800Y-105159200D02*
G75*
G02*
X157797878Y-105218391I-142900J142900D01*
G01*
D41*
X148860570Y-104250000D02*
G75*
G03*
X150037509Y-103762509I30J1664400D01*
G01*
X139575000Y-103825000D02*
G75*
G03*
X138548959Y-103400017I-1026000J-1026000D01*
G01*
X136678100Y-103618100D02*
G75*
G02*
X136768439Y-103400097I90300J90300D01*
G01*
X139575000Y-103825000D02*
G75*
G03*
X140601040Y-104249983I1026000J1026000D01*
G01*
D39*
X157940800Y-105159200D02*
G75*
G03*
X157999991Y-105016278I-142900J142900D01*
G01*
%TO.N,Net-(D1-A)*%
X163982928Y-99980000D02*
G75*
G03*
X163994992Y-99974992I-28J17100D01*
G01*
D38*
X165952738Y-99747261D02*
G75*
G02*
X165415000Y-99969993I-537738J537761D01*
G01*
X165955000Y-99745000D02*
G75*
G02*
X166498198Y-99519999I543200J-543200D01*
G01*
X160956229Y-100599000D02*
G75*
G03*
X161715491Y-100284491I-29J1073800D01*
G01*
D39*
X153949500Y-101224000D02*
G75*
G02*
X153905960Y-101205976I0J61600D01*
G01*
X163812500Y-99980000D02*
X163812500Y-99980000D01*
X155062500Y-100599000D02*
G75*
G02*
X155525000Y-101061500I0J-462500D01*
G01*
D38*
X155987500Y-100599000D02*
G75*
G03*
X155525000Y-101061500I0J-462500D01*
G01*
D39*
X153949500Y-101224000D02*
G75*
G03*
X153993039Y-101205976I0J61600D01*
G01*
X153949500Y-101224000D02*
G75*
G02*
X153975000Y-101249500I0J-25500D01*
G01*
D41*
X153993031Y-101205968D02*
G75*
G03*
X153975010Y-101249500I43569J-43532D01*
G01*
X155041941Y-100599000D02*
G75*
G03*
X154287488Y-100911488I-41J-1066900D01*
G01*
D39*
X159274000Y-100597292D02*
G75*
G03*
X159274498Y-100598502I1700J-8D01*
G01*
X159274000Y-96879740D02*
G75*
G02*
X159311988Y-96787988I129700J40D01*
G01*
X166910000Y-99510000D02*
G75*
G02*
X166905858Y-99519898I-4100J-4100D01*
G01*
D38*
X159274500Y-100598500D02*
G75*
G02*
X159274292Y-100598983I-200J-200D01*
G01*
D39*
X159274500Y-100598500D02*
G75*
G03*
X159275707Y-100598997I1200J1200D01*
G01*
X163992928Y-99970000D02*
G75*
G02*
X163994951Y-99974951I-28J-2900D01*
G01*
D38*
X164007071Y-99970000D02*
G75*
G03*
X163995008Y-99975008I29J-17100D01*
G01*
X163635000Y-99980000D02*
X163812500Y-99980000D01*
X163635000Y-99980000D02*
X163812500Y-99980000D01*
X155987500Y-100599000D02*
X155062500Y-100599000D01*
X159275707Y-100599000D02*
X159274292Y-100599000D01*
X165415000Y-99970000D02*
X165257500Y-99970000D01*
X163992928Y-99970000D02*
X164007071Y-99970000D01*
D39*
%TO.N,Net-(U1-STDBY)*%
X155074134Y-95356572D02*
G75*
G03*
X154498991Y-96745400I1389266J-1388828D01*
G01*
X153923779Y-98134142D02*
G75*
G03*
X154499004Y-96745400I-1388779J1388742D01*
G01*
X152063590Y-99994404D02*
G75*
G03*
X151925000Y-100329000I334610J-334596D01*
G01*
%TO.N,Net-(U1-CHRG)*%
X155899000Y-95250000D02*
G75*
G03*
X155641236Y-95356783I0J-364500D01*
G01*
X155324000Y-95674000D02*
G75*
G03*
X154900011Y-96697626I1023600J-1023600D01*
G01*
X152575000Y-100287500D02*
G75*
G02*
X152742932Y-99882057I573400J0D01*
G01*
X154324768Y-98300231D02*
G75*
G03*
X154899988Y-96911500I-1388768J1388731D01*
G01*
%TO.N,Net-(D2-K)*%
X154925850Y-99077250D02*
G75*
G03*
X155342905Y-99249998I417050J417050D01*
G01*
X154632379Y-101975000D02*
G75*
G03*
X154727506Y-101935606I21J134500D01*
G01*
%TO.N,Net-(U1-VREG)*%
X149311299Y-103112499D02*
G75*
G02*
X148134370Y-103599987I-1176899J1176899D01*
G01*
X144634787Y-102384787D02*
G75*
G02*
X144058008Y-100992300I1392513J1392487D01*
G01*
X145250400Y-92481250D02*
G75*
G02*
X145396498Y-92128451I498900J50D01*
G01*
X145250400Y-92481250D02*
X145250400Y-92481250D01*
X145250400Y-92481250D02*
X145250400Y-92481250D01*
X145250400Y-92481250D02*
G75*
G02*
X145396498Y-92128451I498900J50D01*
G01*
X147117135Y-103600000D02*
G75*
G02*
X144953990Y-102704010I-35J3059100D01*
G01*
X150161900Y-102625000D02*
G75*
G03*
X149542050Y-102881751I0J-876600D01*
G01*
%TO.N,Net-(U1-VS)*%
X150402450Y-105847550D02*
G75*
G02*
X150468720Y-105820108I66250J-66250D01*
G01*
X164087312Y-105195300D02*
G75*
G03*
X164202346Y-105147646I-12J162700D01*
G01*
X161839100Y-105195300D02*
G75*
G02*
X160910805Y-104810744I0J1312700D01*
G01*
X160500650Y-104400600D02*
G75*
G02*
X160500650Y-104451800I-25550J-25600D01*
G01*
X160551923Y-104451826D02*
G75*
G03*
X160500676Y-104451827I-25623J-25574D01*
G01*
X160500650Y-104400600D02*
X160551923Y-104451826D01*
%TO.N,GND*%
X144087000Y-91888000D02*
G75*
G02*
X143150285Y-92275994I-936700J936700D01*
G01*
X141073483Y-91526516D02*
G75*
G02*
X141137500Y-91499990I64017J-63984D01*
G01*
D38*
X166249646Y-95249646D02*
X166249646Y-95249646D01*
D39*
X164005000Y-99005000D02*
G75*
G02*
X163992928Y-99010012I-12100J12100D01*
G01*
X161910000Y-99130000D02*
G75*
G02*
X161620294Y-99249998I-289700J289700D01*
G01*
X141563000Y-91888000D02*
G75*
G03*
X142499714Y-92275994I936700J936700D01*
G01*
D40*
X162100000Y-96950502D02*
G75*
G02*
X162064999Y-97034999I-119500J2D01*
G01*
D38*
X166251500Y-95250000D02*
X166251500Y-95250000D01*
D39*
X140550000Y-92050000D02*
G75*
G02*
X139222182Y-92599993I-1327800J1327800D01*
G01*
X141137500Y-91500000D02*
G75*
G02*
X141201509Y-91526523I0J-90500D01*
G01*
D38*
X169250000Y-95500000D02*
G75*
G02*
X169500019Y-96103553I-603600J-603600D01*
G01*
D39*
X163311091Y-101600000D02*
G75*
G02*
X163975003Y-101874997I9J-938900D01*
G01*
D38*
X168182113Y-100772000D02*
G75*
G03*
X169113996Y-100385996I-13J1317900D01*
G01*
X169500000Y-99454113D02*
G75*
G02*
X169113996Y-100385996I-1317900J13D01*
G01*
D39*
X162030000Y-98840294D02*
G75*
G02*
X161910002Y-99130002I-409700J-6D01*
G01*
X162199705Y-99010000D02*
G75*
G03*
X161909998Y-99129998I-5J-409700D01*
G01*
X162199705Y-99010000D02*
G75*
G02*
X162030000Y-98840294I-5J169700D01*
G01*
X162065000Y-97035000D02*
G75*
G03*
X162029999Y-97119497I84500J-84500D01*
G01*
X152087500Y-102412500D02*
G75*
G03*
X151925004Y-102804809I392300J-392300D01*
G01*
X162025000Y-101987500D02*
G75*
G03*
X161637500Y-101600000I-387500J0D01*
G01*
X162412500Y-101600000D02*
G75*
G03*
X162025000Y-101987500I0J-387500D01*
G01*
X158275000Y-101875000D02*
G75*
G02*
X158938908Y-101600004I663900J-663900D01*
G01*
X162025000Y-101987500D02*
X162025000Y-102035937D01*
X162412500Y-101600000D02*
X161637500Y-101600000D01*
%TO.N,Net-(U1-VS)*%
X150402450Y-105847550D02*
X150375000Y-105875000D01*
D41*
%TO.N,Net-(J1-Pin_3)*%
X147175000Y-104250000D02*
X140601040Y-104250000D01*
D39*
%TO.N,Net-(U1-VREG)*%
X144058000Y-100992300D02*
X144058000Y-100176600D01*
X144634787Y-102384787D02*
X144954000Y-102704000D01*
X147117135Y-103600000D02*
X148134370Y-103600000D01*
X150161900Y-102625000D02*
X150525000Y-102625000D01*
X149311299Y-103112499D02*
X149542049Y-102881750D01*
%TO.N,GND*%
X162030000Y-98840294D02*
X162030000Y-97119497D01*
X162199705Y-99010000D02*
X163992928Y-99010000D01*
X161620294Y-99250000D02*
X160025000Y-99250000D01*
X163311091Y-101600000D02*
X162412500Y-101600000D01*
X158938908Y-101600000D02*
X161637500Y-101600000D01*
X163975000Y-101875000D02*
X164250000Y-102150000D01*
X158275000Y-101875000D02*
X158000000Y-102150000D01*
X151925000Y-102804809D02*
X151925000Y-103975000D01*
X152250000Y-102250000D02*
X152087500Y-102412500D01*
X139222182Y-92600000D02*
X136460000Y-92600000D01*
X141073483Y-91526516D02*
X140550000Y-92050000D01*
X142499714Y-92276000D02*
X143150285Y-92276000D01*
X144087000Y-91888000D02*
X144475000Y-91500000D01*
X141563000Y-91888000D02*
X141201516Y-91526516D01*
D41*
%TO.N,Net-(J1-Pin_3)*%
X138548959Y-103400000D02*
X136768439Y-103400000D01*
X147175000Y-104250000D02*
X148860570Y-104250000D01*
X150037500Y-103762500D02*
X150525000Y-103275000D01*
D39*
%TO.N,Net-(J1-Pin_2)*%
X145059250Y-98000000D02*
X136460000Y-98000000D01*
%TO.N,Net-(J1-Pin_3)*%
X158088388Y-104761611D02*
X160475000Y-102375000D01*
X158000000Y-105016278D02*
X158000000Y-104975000D01*
X136678100Y-103618100D02*
X136896200Y-103836200D01*
X151545100Y-105218400D02*
X157797878Y-105218400D01*
%TO.N,Net-(D1-A)*%
X159274000Y-96879740D02*
X159274000Y-100597292D01*
X159312000Y-96788000D02*
X159350000Y-96750000D01*
D38*
X155987500Y-100599000D02*
X159274292Y-100599000D01*
D39*
X153905968Y-101205968D02*
X153225000Y-100525000D01*
D41*
X153993031Y-101205968D02*
X154287500Y-100911500D01*
D38*
X155041941Y-100599000D02*
X155062500Y-100599000D01*
X160956229Y-100599000D02*
X159275707Y-100599000D01*
X162030000Y-99970000D02*
X161715500Y-100284500D01*
X166905857Y-99520000D02*
X166498198Y-99520000D01*
X165955000Y-99745000D02*
X165952738Y-99747261D01*
X164238535Y-99970000D02*
X164007071Y-99970000D01*
X162030000Y-99970000D02*
X163992928Y-99970000D01*
D39*
X166910000Y-99510000D02*
X166900000Y-99500000D01*
X163812500Y-99980000D02*
X163982928Y-99980000D01*
D38*
X163035000Y-99980000D02*
X163000000Y-99980000D01*
X163812500Y-99980000D02*
X164270000Y-99980000D01*
D39*
X153975000Y-101249500D02*
X153975000Y-101325000D01*
%TO.N,Net-(U1-STDBY)*%
X153923779Y-98134142D02*
X152063590Y-99994404D01*
X151925000Y-100329000D02*
X151925000Y-100525000D01*
%TO.N,Net-(U1-CHRG)*%
X155899000Y-95250000D02*
X156050000Y-95250000D01*
X155324000Y-95674000D02*
X155641226Y-95356773D01*
X154900000Y-96697626D02*
X154900000Y-96911500D01*
X154324768Y-98300231D02*
X152742937Y-99882062D01*
X152575000Y-100287500D02*
X152575000Y-100525000D01*
%TO.N,Net-(D2-K)*%
X153975000Y-101975000D02*
X153975000Y-102625000D01*
X154766900Y-101896200D02*
X154727500Y-101935600D01*
X154632379Y-101975000D02*
X153975000Y-101975000D01*
X154925850Y-99077250D02*
X154753100Y-98904500D01*
X155342905Y-99250000D02*
X155740000Y-99250000D01*
%TO.N,Net-(U1-VREG)*%
X146025000Y-91500000D02*
X147675000Y-91500000D01*
X146025000Y-91500000D02*
X145396523Y-92128476D01*
X145250400Y-92481250D02*
X145250400Y-92687900D01*
X145250400Y-92481250D02*
X145250400Y-92687900D01*
X145250400Y-92481250D02*
X145250400Y-92687900D01*
%TO.N,Net-(U1-VS)*%
X160551923Y-104451826D02*
X160910800Y-104810749D01*
X161839100Y-105195300D02*
X164087312Y-105195300D01*
X164202350Y-105147650D02*
X164250000Y-105100000D01*
X160500650Y-104400600D02*
X160475000Y-104375000D01*
%TO.N,Net-(C5-Pad1)*%
X158475000Y-99250000D02*
X156760000Y-99250000D01*
%TO.N,GND*%
X162025000Y-104150000D02*
X162025000Y-104375000D01*
D38*
X168182113Y-100772000D02*
X166957556Y-100772000D01*
X169500000Y-99454113D02*
X169500000Y-96103553D01*
X169250000Y-95500000D02*
X169000000Y-95250000D01*
X166920000Y-95250000D02*
X169000000Y-95250000D01*
D40*
X162100000Y-96950502D02*
X162100000Y-93990000D01*
D39*
X164005000Y-99005000D02*
X164010000Y-99000000D01*
X166925500Y-100755500D02*
X166931000Y-100761000D01*
%TO.N,Net-(U1-STDBY)*%
X156050000Y-93550000D02*
X155881500Y-93718750D01*
X155713000Y-94125971D02*
G75*
G02*
X155881519Y-93718769I576300J-29D01*
G01*
X155713000Y-94727500D02*
G75*
G02*
X155703000Y-94737500I-10000J0D01*
G01*
X155074134Y-95356572D02*
X155685930Y-94744572D01*
X155713000Y-94727500D02*
X155713000Y-94125971D01*
%TD*%
%TA.AperFunction,Conductor*%
%TO.N,Net-(U1-VS)*%
G36*
X150564237Y-105377863D02*
G01*
X150572456Y-105381415D01*
X150575730Y-105388741D01*
X150585724Y-105530809D01*
X150585724Y-105530810D01*
X150616673Y-105633046D01*
X150616682Y-105633075D01*
X150622125Y-105648011D01*
X150622400Y-105648868D01*
X150665848Y-105804351D01*
X150664774Y-105813241D01*
X150657729Y-105818768D01*
X150656900Y-105818968D01*
X150377305Y-105875529D01*
X150372665Y-105875529D01*
X150093031Y-105818954D01*
X150085602Y-105813954D01*
X150083883Y-105805166D01*
X150084066Y-105804399D01*
X150084079Y-105804351D01*
X150131509Y-105630937D01*
X150131597Y-105630636D01*
X150155080Y-105554863D01*
X150168756Y-105479033D01*
X150174368Y-105383157D01*
X150178272Y-105375100D01*
X150186223Y-105372143D01*
X150564237Y-105377863D01*
G37*
%TD.AperFunction*%
%TD*%
%TA.AperFunction,Conductor*%
%TO.N,GND*%
G36*
X165596935Y-94461632D02*
G01*
X165600356Y-94469537D01*
X165606022Y-94649820D01*
X165606023Y-94649829D01*
X165618369Y-94788970D01*
X165620662Y-94811397D01*
X165620711Y-94812047D01*
X165629293Y-94997950D01*
X165629262Y-94999489D01*
X165619021Y-95119021D01*
X165618902Y-95119963D01*
X165594308Y-95266179D01*
X165589556Y-95273769D01*
X165580829Y-95275776D01*
X165580516Y-95275719D01*
X165202310Y-95201453D01*
X165198044Y-95199687D01*
X164878022Y-94984893D01*
X164873062Y-94977437D01*
X164874827Y-94968658D01*
X164875427Y-94967843D01*
X164960774Y-94862125D01*
X164961953Y-94860868D01*
X165047210Y-94782639D01*
X165135168Y-94696835D01*
X165161283Y-94656605D01*
X165181270Y-94607996D01*
X165195159Y-94542006D01*
X165199363Y-94469229D01*
X165203262Y-94461168D01*
X165211044Y-94458205D01*
X165588662Y-94458205D01*
X165596935Y-94461632D01*
G37*
%TD.AperFunction*%
%TD*%
%TA.AperFunction,Conductor*%
%TO.N,Net-(U1-CHRG)*%
G36*
X155889858Y-95010272D02*
G01*
X155890051Y-95010549D01*
X156047981Y-95245243D01*
X156049757Y-95254020D01*
X156049745Y-95254079D01*
X155994013Y-95531587D01*
X155989024Y-95539023D01*
X155980238Y-95540754D01*
X155979132Y-95540475D01*
X155849038Y-95500836D01*
X155849039Y-95500832D01*
X155849015Y-95500829D01*
X155757776Y-95472831D01*
X155757774Y-95472831D01*
X155687526Y-95478826D01*
X155687524Y-95478826D01*
X155645186Y-95501135D01*
X155606561Y-95534069D01*
X155598042Y-95536829D01*
X155590697Y-95533439D01*
X155464905Y-95407647D01*
X155463265Y-95403688D01*
X155461485Y-95399785D01*
X155461562Y-95399577D01*
X155461478Y-95399374D01*
X155464617Y-95391400D01*
X155470080Y-95385539D01*
X155470228Y-95385386D01*
X155782853Y-95072656D01*
X155784300Y-95071431D01*
X155873537Y-95007566D01*
X155882257Y-95005538D01*
X155889858Y-95010272D01*
G37*
%TD.AperFunction*%
%TD*%
%TA.AperFunction,Conductor*%
%TO.N,Net-(D2-K)*%
G36*
X155007685Y-98748457D02*
G01*
X155008431Y-98749751D01*
X155056449Y-98846948D01*
X155057286Y-98849199D01*
X155081932Y-98944452D01*
X155108317Y-99036716D01*
X155154181Y-99095567D01*
X155154185Y-99095570D01*
X155196760Y-99121229D01*
X155245941Y-99138541D01*
X155252607Y-99144520D01*
X155253357Y-99152605D01*
X155207494Y-99323776D01*
X155202043Y-99330880D01*
X155193165Y-99332049D01*
X155192922Y-99331982D01*
X154996558Y-99274808D01*
X154996538Y-99274802D01*
X154874661Y-99239076D01*
X154874648Y-99239073D01*
X154705682Y-99201224D01*
X154698357Y-99196072D01*
X154696756Y-99187565D01*
X154751198Y-98909035D01*
X154756146Y-98901575D01*
X154991466Y-98745188D01*
X155000252Y-98743464D01*
X155007685Y-98748457D01*
G37*
%TD.AperFunction*%
%TD*%
%TA.AperFunction,Conductor*%
%TO.N,Net-(U1-VREG)*%
G36*
X145334591Y-92065543D02*
G01*
X145334880Y-92065822D01*
X145460615Y-92191557D01*
X145464042Y-92199830D01*
X145461752Y-92206783D01*
X145418547Y-92265259D01*
X145408429Y-92323825D01*
X145426195Y-92380007D01*
X145460638Y-92439392D01*
X145460650Y-92439440D01*
X145460662Y-92439434D01*
X145505795Y-92517983D01*
X145506704Y-92519979D01*
X145540244Y-92616708D01*
X145539717Y-92625647D01*
X145533023Y-92631595D01*
X145531494Y-92632012D01*
X145254479Y-92687645D01*
X145245693Y-92685914D01*
X145245643Y-92685881D01*
X145010217Y-92527459D01*
X145005266Y-92519997D01*
X145006743Y-92511689D01*
X145114948Y-92333234D01*
X145171483Y-92237973D01*
X145172203Y-92236904D01*
X145231258Y-92159168D01*
X145231992Y-92158298D01*
X145318055Y-92066110D01*
X145326205Y-92062402D01*
X145334591Y-92065543D01*
G37*
%TD.AperFunction*%
%TD*%
%TA.AperFunction,Conductor*%
%TO.N,Net-(U1-VREG)*%
G36*
X145334591Y-92065543D02*
G01*
X145334880Y-92065822D01*
X145460615Y-92191557D01*
X145464042Y-92199830D01*
X145461752Y-92206783D01*
X145418547Y-92265259D01*
X145408429Y-92323825D01*
X145426195Y-92380007D01*
X145460638Y-92439392D01*
X145460650Y-92439440D01*
X145460662Y-92439434D01*
X145505795Y-92517983D01*
X145506704Y-92519979D01*
X145540244Y-92616708D01*
X145539717Y-92625647D01*
X145533023Y-92631595D01*
X145531494Y-92632012D01*
X145254479Y-92687645D01*
X145245693Y-92685914D01*
X145245643Y-92685881D01*
X145010217Y-92527459D01*
X145005266Y-92519997D01*
X145006743Y-92511689D01*
X145114948Y-92333234D01*
X145171483Y-92237973D01*
X145172203Y-92236904D01*
X145231258Y-92159168D01*
X145231992Y-92158298D01*
X145318055Y-92066110D01*
X145326205Y-92062402D01*
X145334591Y-92065543D01*
G37*
%TD.AperFunction*%
%TD*%
%TA.AperFunction,Conductor*%
%TO.N,GND*%
G36*
X151869421Y-102174268D02*
G01*
X152232890Y-102245640D01*
X152245218Y-102248061D01*
X152252676Y-102253018D01*
X152252701Y-102253055D01*
X152322259Y-102357468D01*
X152411569Y-102491533D01*
X152465035Y-102571790D01*
X152466770Y-102580575D01*
X152461785Y-102588014D01*
X152460748Y-102588630D01*
X152351264Y-102646263D01*
X152349649Y-102646964D01*
X152239824Y-102685065D01*
X152239725Y-102685099D01*
X152165039Y-102710261D01*
X152089692Y-102752492D01*
X152089689Y-102752494D01*
X152063736Y-102780646D01*
X152063728Y-102780656D01*
X152043969Y-102816945D01*
X152043964Y-102816956D01*
X152029871Y-102869561D01*
X152029871Y-102869564D01*
X152025780Y-102926521D01*
X152021769Y-102934528D01*
X152014110Y-102937383D01*
X151836385Y-102937383D01*
X151828112Y-102933956D01*
X151824689Y-102926003D01*
X151817626Y-102667771D01*
X151817624Y-102667692D01*
X151817191Y-102646676D01*
X151813994Y-102491515D01*
X151814037Y-102490280D01*
X151825760Y-102357942D01*
X151825883Y-102357001D01*
X151855656Y-102183769D01*
X151860435Y-102176198D01*
X151869169Y-102174222D01*
X151869421Y-102174268D01*
G37*
%TD.AperFunction*%
%TD*%
%TA.AperFunction,Conductor*%
%TO.N,Net-(U1-VREG)*%
G36*
X144340132Y-100232678D02*
G01*
X144347561Y-100237678D01*
X144349280Y-100246466D01*
X144349138Y-100247081D01*
X144330638Y-100318475D01*
X144330178Y-100319879D01*
X144304535Y-100384095D01*
X144303738Y-100385715D01*
X144246169Y-100482984D01*
X144245914Y-100483395D01*
X144220020Y-100523290D01*
X144175663Y-100622080D01*
X144175662Y-100622081D01*
X144162708Y-100687605D01*
X144162708Y-100687610D01*
X144158624Y-100759797D01*
X144154736Y-100767863D01*
X144146943Y-100770836D01*
X143968894Y-100770836D01*
X143960621Y-100767409D01*
X143957224Y-100759969D01*
X143950800Y-100670026D01*
X143950800Y-100670025D01*
X143931464Y-100594823D01*
X143903383Y-100535716D01*
X143903382Y-100535715D01*
X143903381Y-100535712D01*
X143870077Y-100483387D01*
X143869852Y-100483020D01*
X143809884Y-100380668D01*
X143809079Y-100379004D01*
X143784760Y-100316647D01*
X143784334Y-100315327D01*
X143766824Y-100247057D01*
X143768088Y-100238194D01*
X143775250Y-100232819D01*
X143775818Y-100232688D01*
X144055682Y-100176069D01*
X144060318Y-100176069D01*
X144340132Y-100232678D01*
G37*
%TD.AperFunction*%
%TD*%
%TA.AperFunction,Conductor*%
%TO.N,GND*%
G36*
X163958222Y-101723204D02*
G01*
X164103733Y-101807459D01*
X164255868Y-101845461D01*
X164255877Y-101845463D01*
X164255897Y-101845468D01*
X164297043Y-101853517D01*
X164304505Y-101858468D01*
X164306279Y-101867245D01*
X164306279Y-101867246D01*
X164252341Y-102142836D01*
X164247389Y-102150297D01*
X164243115Y-102152070D01*
X163968337Y-102206056D01*
X163959558Y-102204288D01*
X163954600Y-102196831D01*
X163954444Y-102195794D01*
X163942471Y-102080207D01*
X163942437Y-102079794D01*
X163939353Y-102029770D01*
X163917820Y-101960472D01*
X163917819Y-101960471D01*
X163917819Y-101960470D01*
X163904622Y-101944247D01*
X163887499Y-101923197D01*
X163860175Y-101901726D01*
X163846132Y-101890691D01*
X163841744Y-101882884D01*
X163843632Y-101874993D01*
X163942631Y-101726828D01*
X163950076Y-101721854D01*
X163958222Y-101723204D01*
G37*
%TD.AperFunction*%
%TD*%
%TA.AperFunction,Conductor*%
%TO.N,Net-(J1-Pin_3)*%
G36*
X151615559Y-104927256D02*
G01*
X151686989Y-104945765D01*
X151688366Y-104946216D01*
X151752595Y-104971864D01*
X151754215Y-104972661D01*
X151851484Y-105030230D01*
X151851893Y-105030483D01*
X151891790Y-105056378D01*
X151891794Y-105056380D01*
X151891793Y-105056380D01*
X151990581Y-105100736D01*
X151990582Y-105100737D01*
X151990585Y-105100737D01*
X151990586Y-105100738D01*
X152056111Y-105113692D01*
X152128298Y-105117775D01*
X152136363Y-105121663D01*
X152139336Y-105129456D01*
X152139336Y-105307506D01*
X152135909Y-105315779D01*
X152128469Y-105319176D01*
X152038526Y-105325599D01*
X151963328Y-105344934D01*
X151963326Y-105344934D01*
X151904212Y-105373018D01*
X151851887Y-105406322D01*
X151851520Y-105406547D01*
X151749169Y-105466514D01*
X151747505Y-105467319D01*
X151685160Y-105491635D01*
X151683816Y-105492068D01*
X151615559Y-105509575D01*
X151606694Y-105508311D01*
X151601319Y-105501149D01*
X151601184Y-105500562D01*
X151594459Y-105467319D01*
X151544569Y-105220718D01*
X151544569Y-105216080D01*
X151564457Y-105117775D01*
X151601178Y-104936266D01*
X151606178Y-104928838D01*
X151614966Y-104927119D01*
X151615559Y-104927256D01*
G37*
%TD.AperFunction*%
%TD*%
%TA.AperFunction,Conductor*%
%TO.N,Net-(D2-K)*%
G36*
X154606747Y-101656528D02*
G01*
X154607325Y-101657315D01*
X154765172Y-101892142D01*
X154766943Y-101900920D01*
X154766930Y-101900989D01*
X154710793Y-102178472D01*
X154705793Y-102185901D01*
X154697005Y-102187620D01*
X154696522Y-102187511D01*
X154578290Y-102158334D01*
X154577328Y-102158053D01*
X154486124Y-102127052D01*
X154375620Y-102092479D01*
X154375614Y-102092477D01*
X154375612Y-102092477D01*
X154361891Y-102090345D01*
X154293292Y-102079685D01*
X154192273Y-102075468D01*
X154184150Y-102071699D01*
X154181061Y-102063778D01*
X154181061Y-101885832D01*
X154184488Y-101877559D01*
X154191860Y-101874167D01*
X154281369Y-101867268D01*
X154281372Y-101867267D01*
X154281373Y-101867267D01*
X154301648Y-101860918D01*
X154351958Y-101845167D01*
X154406046Y-101810339D01*
X154456853Y-101764426D01*
X154476147Y-101746192D01*
X154476844Y-101745586D01*
X154590303Y-101654709D01*
X154598900Y-101652213D01*
X154606747Y-101656528D01*
G37*
%TD.AperFunction*%
%TD*%
%TA.AperFunction,Conductor*%
%TO.N,Net-(U1-STDBY)*%
G36*
X156045463Y-93548097D02*
G01*
X156052925Y-93553048D01*
X156052962Y-93553104D01*
X156209345Y-93788418D01*
X156211070Y-93797205D01*
X156206077Y-93804638D01*
X156204833Y-93805359D01*
X156109251Y-93853148D01*
X156107088Y-93853973D01*
X156013557Y-93879392D01*
X155922953Y-93906433D01*
X155863935Y-93952841D01*
X155838192Y-93995743D01*
X155838190Y-93995747D01*
X155820764Y-94045367D01*
X155814789Y-94052037D01*
X155806699Y-94052792D01*
X155635425Y-94006934D01*
X155628320Y-94001484D01*
X155627149Y-93992606D01*
X155627189Y-93992462D01*
X155651406Y-93906434D01*
X155677814Y-93812619D01*
X155714181Y-93681579D01*
X155753319Y-93502647D01*
X155758434Y-93495300D01*
X155766990Y-93493667D01*
X156045463Y-93548097D01*
G37*
%TD.AperFunction*%
%TD*%
M02*
