%TF.GenerationSoftware,KiCad,Pcbnew,9.0.6*%
%TF.CreationDate,2025-11-02T21:38:21+05:30*%
%TF.ProjectId,Helmet_bt_headset,48656c6d-6574-45f6-9274-5f6865616473,rev?*%
%TF.SameCoordinates,Original*%
%TF.FileFunction,Copper,L2,Bot*%
%TF.FilePolarity,Positive*%
%FSLAX46Y46*%
G04 Gerber Fmt 4.6, Leading zero omitted, Abs format (unit mm)*
G04 Created by KiCad (PCBNEW 9.0.6) date 2025-11-02 21:38:21*
%MOMM*%
%LPD*%
G01*
G04 APERTURE LIST*
G04 Aperture macros list*
%AMRoundRect*
0 Rectangle with rounded corners*
0 $1 Rounding radius*
0 $2 $3 $4 $5 $6 $7 $8 $9 X,Y pos of 4 corners*
0 Add a 4 corners polygon primitive as box body*
4,1,4,$2,$3,$4,$5,$6,$7,$8,$9,$2,$3,0*
0 Add four circle primitives for the rounded corners*
1,1,$1+$1,$2,$3*
1,1,$1+$1,$4,$5*
1,1,$1+$1,$6,$7*
1,1,$1+$1,$8,$9*
0 Add four rect primitives between the rounded corners*
20,1,$1+$1,$2,$3,$4,$5,0*
20,1,$1+$1,$4,$5,$6,$7,0*
20,1,$1+$1,$6,$7,$8,$9,0*
20,1,$1+$1,$8,$9,$2,$3,0*%
G04 Aperture macros list end*
%TA.AperFunction,ComponentPad*%
%ADD10C,2.750000*%
%TD*%
%TA.AperFunction,ComponentPad*%
%ADD11RoundRect,0.250000X-1.125000X1.125000X-1.125000X-1.125000X1.125000X-1.125000X1.125000X1.125000X0*%
%TD*%
%TA.AperFunction,SMDPad,CuDef*%
%ADD12RoundRect,0.135000X-0.135000X-0.185000X0.135000X-0.185000X0.135000X0.185000X-0.135000X0.185000X0*%
%TD*%
%TA.AperFunction,SMDPad,CuDef*%
%ADD13RoundRect,0.200000X0.200000X0.275000X-0.200000X0.275000X-0.200000X-0.275000X0.200000X-0.275000X0*%
%TD*%
%TA.AperFunction,SMDPad,CuDef*%
%ADD14RoundRect,0.225000X0.225000X0.250000X-0.225000X0.250000X-0.225000X-0.250000X0.225000X-0.250000X0*%
%TD*%
%TA.AperFunction,HeatsinkPad*%
%ADD15O,1.700000X1.100000*%
%TD*%
%TA.AperFunction,ViaPad*%
%ADD16C,0.800000*%
%TD*%
%TA.AperFunction,ViaPad*%
%ADD17C,0.600000*%
%TD*%
%TA.AperFunction,Conductor*%
%ADD18C,0.400000*%
%TD*%
%TA.AperFunction,Conductor*%
%ADD19C,0.800000*%
%TD*%
%TA.AperFunction,Conductor*%
%ADD20C,0.200000*%
%TD*%
%TA.AperFunction,Conductor*%
%ADD21C,0.500000*%
%TD*%
G04 APERTURE END LIST*
D10*
%TO.P,J1,3,Pin_3*%
%TO.N,Net-(J1-Pin_3)*%
X136460000Y-103400000D03*
%TO.P,J1,2,Pin_2*%
%TO.N,Net-(J1-Pin_2)*%
X136460000Y-98000000D03*
D11*
%TO.P,J1,1,Pin_1*%
%TO.N,GND*%
X136460000Y-92600000D03*
%TD*%
D12*
%TO.P,R1,2*%
%TO.N,Net-(D1-RK)*%
X158285000Y-95275000D03*
%TO.P,R1,1*%
%TO.N,Net-(U1-CHRG)*%
X157265000Y-95275000D03*
%TD*%
%TO.P,R8,1*%
%TO.N,Net-(J2-CC1)*%
X168990000Y-98750000D03*
%TO.P,R8,2*%
%TO.N,GND*%
X170010000Y-98750000D03*
%TD*%
%TO.P,R7,1*%
%TO.N,Net-(J2-CC2)*%
X168990000Y-97250000D03*
%TO.P,R7,2*%
%TO.N,GND*%
X170010000Y-97250000D03*
%TD*%
D13*
%TO.P,R9,1*%
%TO.N,Net-(J2-SHIELD)*%
X170325000Y-95500000D03*
%TO.P,R9,2*%
%TO.N,GND*%
X168675000Y-95500000D03*
%TD*%
D12*
%TO.P,R2,1*%
%TO.N,Net-(U1-STDBY)*%
X157290000Y-93550000D03*
%TO.P,R2,2*%
%TO.N,Net-(D1-GK)*%
X158310000Y-93550000D03*
%TD*%
D14*
%TO.P,C11,1*%
%TO.N,Net-(J2-SHIELD)*%
X170275000Y-100500000D03*
%TO.P,C11,2*%
%TO.N,GND*%
X168725000Y-100500000D03*
%TD*%
D15*
%TO.P,J2,S1,SHIELD*%
%TO.N,Net-(J2-SHIELD)*%
X167000000Y-102320000D03*
X170800000Y-102320000D03*
X167000000Y-93680000D03*
X170800000Y-93680000D03*
%TD*%
D16*
%TO.N,GND*%
X165200000Y-95200000D03*
D17*
%TO.N,Net-(U1-VS)*%
X150375000Y-105875000D03*
%TO.N,Net-(J1-Pin_3)*%
X147462500Y-95000000D03*
X147175000Y-104250000D03*
%TO.N,GND*%
X152000000Y-92000000D03*
X164250000Y-102150000D03*
D16*
X152250000Y-102250000D03*
D17*
%TO.N,Net-(D2-K)*%
X147150000Y-101500000D03*
X152000000Y-96000000D03*
%TO.N,Net-(U1-VS)*%
X141850000Y-101500000D03*
X141537500Y-95000000D03*
%TO.N,Net-(J1-Pin_3)*%
X151545100Y-105218400D03*
%TO.N,Net-(J2-CC1)*%
X166920000Y-98500000D03*
%TO.N,Net-(J2-CC2)*%
X166920000Y-97500000D03*
%TO.N,Net-(U1-STDBY)*%
X156050000Y-93550000D03*
%TO.N,Net-(U1-CHRG)*%
X156050000Y-95250000D03*
%TO.N,Net-(D2-K)*%
X154766900Y-101896200D03*
X154753100Y-98904500D03*
%TO.N,Net-(D1-GK)*%
X156150000Y-91750000D03*
%TO.N,Net-(D1-RK)*%
X159350000Y-91750000D03*
%TO.N,Net-(U1-VREG)*%
X144058000Y-100176600D03*
X145250400Y-92687900D03*
%TD*%
D18*
%TO.N,GND*%
X170010000Y-97068437D02*
X170010000Y-97120312D01*
X170010000Y-98285000D02*
X170010000Y-98633750D01*
X170010000Y-98720937D02*
X170010000Y-98895312D01*
X170010000Y-97146250D02*
X170010000Y-97250000D01*
%TO.N,Net-(J1-Pin_3)*%
X146282014Y-102307014D02*
G75*
G02*
X146500403Y-102834164I-527114J-527186D01*
G01*
X146275000Y-100775000D02*
G75*
G03*
X146500001Y-100231801I-543200J543200D01*
G01*
X146050000Y-101318198D02*
G75*
G02*
X146275001Y-100775001I768200J-2D01*
G01*
X146050000Y-101756542D02*
G75*
G03*
X146275209Y-102300157I768800J42D01*
G01*
D19*
%TO.N,GND*%
X143100000Y-91900000D02*
G75*
G02*
X144789949Y-91200021I1689900J-1689900D01*
G01*
X143100000Y-91900000D02*
G75*
G02*
X141410050Y-92600021I-1690000J1690000D01*
G01*
D18*
X165712132Y-95500000D02*
G75*
G02*
X165349991Y-95350009I-32J512100D01*
G01*
D19*
X146600000Y-91600000D02*
G75*
G03*
X147565685Y-92000006I965700J965700D01*
G01*
X146600000Y-91600000D02*
G75*
G03*
X145634314Y-91199994I-965700J-965700D01*
G01*
X152000000Y-92825000D02*
G75*
G03*
X152583368Y-94233358I1991700J0D01*
G01*
D18*
X170010000Y-98633750D02*
X170010000Y-98720937D01*
X170010000Y-97120312D02*
X170010000Y-97146250D01*
X165200000Y-95200000D02*
X165350000Y-95350000D01*
X170010000Y-97068437D02*
X170010000Y-97042500D01*
X170010000Y-98285000D02*
X170010000Y-97250000D01*
X169342500Y-96167500D02*
X169863275Y-96688275D01*
X165712132Y-95500000D02*
X167731012Y-95500000D01*
X170010000Y-98895312D02*
X170010000Y-98982500D01*
X169367499Y-99857499D02*
X169845597Y-99379402D01*
X169342500Y-96167500D02*
G75*
G03*
X167731012Y-95499995I-1611500J-1611500D01*
G01*
X170010000Y-97042500D02*
G75*
G03*
X169863285Y-96688265I-501000J0D01*
G01*
X170010000Y-98982500D02*
G75*
G02*
X169845597Y-99379402I-561300J0D01*
G01*
D19*
X152583363Y-94233363D02*
X156525000Y-98175000D01*
X152000000Y-92825000D02*
X152000000Y-92000000D01*
D18*
%TO.N,Net-(J1-Pin_3)*%
X146837500Y-103912500D02*
X147175000Y-104250000D01*
X146050000Y-101318198D02*
X146050000Y-101756542D01*
X147462500Y-95000000D02*
X146981250Y-95481250D01*
X146282014Y-102307014D02*
X146275183Y-102300183D01*
X146837500Y-103912500D02*
G75*
G02*
X146500406Y-103142959I811100J813900D01*
G01*
X146500000Y-96643090D02*
G75*
G02*
X146981253Y-95481253I1643100J-10D01*
G01*
X146500367Y-103142961D02*
X146500367Y-102834164D01*
X146500000Y-96643090D02*
X146500000Y-100231801D01*
D19*
%TO.N,GND*%
X145634314Y-91200000D02*
X144789949Y-91200000D01*
X152000000Y-92000000D02*
X147565685Y-92000000D01*
X141410050Y-92600000D02*
X136460000Y-92600000D01*
D20*
X152000000Y-92000000D02*
X152000000Y-92200000D01*
%TO.N,Net-(J1-Pin_3)*%
X148828162Y-105218400D02*
G75*
G02*
X147659211Y-104734189I38J1653200D01*
G01*
%TO.N,Net-(J2-CC1)*%
X168580294Y-98500000D02*
G75*
G02*
X168870002Y-98619998I6J-409700D01*
G01*
X168986464Y-98736464D02*
G75*
G02*
X168989992Y-98745000I-8564J-8536D01*
G01*
%TO.N,Net-(J2-CC2)*%
X168624999Y-97374999D02*
G75*
G02*
X168323223Y-97500008I-301799J301799D01*
G01*
X168665147Y-97334852D02*
G75*
G02*
X168870000Y-97249998I204853J-204848D01*
G01*
D18*
%TO.N,Net-(J2-SHIELD)*%
X170350000Y-95525000D02*
G75*
G03*
X170300000Y-95525000I-25000J-24998D01*
G01*
X170350000Y-95525000D02*
G75*
G02*
X170350000Y-95475000I25000J25000D01*
G01*
X170537500Y-101787500D02*
G75*
G02*
X170275013Y-101153768I633700J633700D01*
G01*
X170637499Y-100112499D02*
G75*
G03*
X171000048Y-99237347I-875099J875199D01*
G01*
D20*
X170275000Y-100512500D02*
G75*
G02*
X170283865Y-100508811I5200J0D01*
G01*
D18*
X170283838Y-100508838D02*
G75*
G02*
X170275007Y-100487500I21362J21338D01*
G01*
X170562500Y-95262500D02*
G75*
G03*
X170800010Y-94689124I-573400J573400D01*
G01*
X170800000Y-102185000D02*
G75*
G02*
X170665000Y-102320000I-135000J0D01*
G01*
D20*
X170800000Y-102185000D02*
G75*
G02*
X170665000Y-102320000I-135000J0D01*
G01*
X170800000Y-102185000D02*
X170800000Y-102185000D01*
D18*
X170704540Y-101954540D02*
G75*
G02*
X170800006Y-102185000I-230440J-230460D01*
G01*
X170662500Y-95837500D02*
G75*
G02*
X171000001Y-96652297I-814800J-814800D01*
G01*
X170275000Y-100487500D02*
G75*
G02*
X170283834Y-100466157I30200J0D01*
G01*
D20*
X170350000Y-95475000D02*
X170300000Y-95525000D01*
D18*
X170275000Y-100512500D02*
X170275000Y-100487500D01*
D20*
%TO.N,Net-(U1-CHRG)*%
X156062500Y-95262500D02*
G75*
G03*
X156092677Y-95275009I30200J30200D01*
G01*
D18*
%TO.N,Net-(D2-K)*%
X148016205Y-98183794D02*
G75*
G03*
X147149996Y-100275000I2091195J-2091206D01*
G01*
X154760000Y-98911400D02*
G75*
G02*
X154766917Y-98928058I-16700J-16700D01*
G01*
D20*
X154760000Y-98911400D02*
G75*
G02*
X154766917Y-98928058I-16700J-16700D01*
G01*
D18*
X154760000Y-98911400D02*
X154760000Y-98911400D01*
X151100000Y-96000000D02*
G75*
G03*
X149563602Y-96636395I0J-2172800D01*
G01*
D20*
X152053527Y-96204927D02*
G75*
G02*
X152000013Y-96075700I129273J129227D01*
G01*
%TO.N,Net-(D1-GK)*%
X156637279Y-91877279D02*
G75*
G03*
X156330000Y-91750012I-307279J-307321D01*
G01*
%TO.N,Net-(D1-RK)*%
X158817500Y-94742500D02*
G75*
G03*
X159350013Y-93456931I-1285600J1285600D01*
G01*
%TO.N,Net-(U1-VREG)*%
X145250400Y-98141045D02*
G75*
G02*
X144654187Y-99580387I-2035600J45D01*
G01*
X145250400Y-92481250D02*
X145250400Y-92481250D01*
D21*
%TO.N,Net-(U1-VS)*%
X141537500Y-100966529D02*
G75*
G03*
X141693759Y-101343741I533500J29D01*
G01*
D18*
X148300000Y-105875000D02*
G75*
G02*
X144757752Y-104407754I0J5009500D01*
G01*
%TO.N,GND*%
X165000000Y-101075000D02*
G75*
G02*
X164770186Y-101629805I-784600J0D01*
G01*
X165625000Y-100500000D02*
X165625000Y-100500000D01*
X165000000Y-100926776D02*
G75*
G02*
X165125007Y-100625007I426800J-24D01*
G01*
X169367499Y-99857499D02*
G75*
G02*
X167816367Y-100499985I-1551099J1551099D01*
G01*
X167816367Y-100500000D02*
X167816367Y-100500000D01*
X169367499Y-99857499D02*
G75*
G02*
X167816367Y-100499985I-1551099J1551099D01*
G01*
X136460000Y-92420000D02*
G75*
G03*
X136587330Y-92472771I74600J0D01*
G01*
X165161611Y-100588388D02*
G75*
G02*
X165375000Y-100500006I213389J-213412D01*
G01*
X165625000Y-100500000D02*
X165375000Y-100500000D01*
X165625000Y-100500000D02*
X165375000Y-100500000D01*
%TO.N,Net-(U1-VS)*%
X150375000Y-105875000D02*
X148300000Y-105875000D01*
X141850000Y-101500000D02*
X144757753Y-104407753D01*
D20*
%TO.N,Net-(J1-Pin_3)*%
X147175000Y-104250000D02*
X147659200Y-104734200D01*
X148828162Y-105218400D02*
X151545100Y-105218400D01*
D18*
%TO.N,GND*%
X136460000Y-92420000D02*
X136460000Y-92240000D01*
X164770190Y-101629809D02*
X164250000Y-102150000D01*
X165000000Y-100926776D02*
X165000000Y-101075000D01*
D20*
%TO.N,Net-(D2-K)*%
X152000000Y-96000000D02*
X152000000Y-96075700D01*
D18*
X154760000Y-98911400D02*
X152053527Y-96204927D01*
X151100000Y-96000000D02*
X152000000Y-96000000D01*
X148016205Y-98183794D02*
X149563603Y-96636396D01*
X147150000Y-100275000D02*
X147150000Y-101500000D01*
D21*
%TO.N,Net-(U1-VS)*%
X141850000Y-101500000D02*
X141693750Y-101343750D01*
X141537500Y-95000000D02*
X141537500Y-100966529D01*
D20*
%TO.N,Net-(J2-CC1)*%
X168580294Y-98500000D02*
X166920000Y-98500000D01*
X168986464Y-98736464D02*
X168870000Y-98620000D01*
X168990000Y-98745000D02*
X168990000Y-98750000D01*
%TO.N,Net-(J2-CC2)*%
X166920000Y-97500000D02*
X168323223Y-97500000D01*
X168665147Y-97334852D02*
X168624999Y-97374999D01*
X168870000Y-97250000D02*
X168990000Y-97250000D01*
%TO.N,Net-(J2-SHIELD)*%
X170283838Y-100508838D02*
X170537500Y-100762500D01*
D18*
X170665000Y-102320000D02*
X167000000Y-102320000D01*
X170350000Y-95525000D02*
X170662500Y-95837500D01*
X171000000Y-96652297D02*
X171000000Y-99237347D01*
X170637499Y-100112499D02*
X170283838Y-100466161D01*
X170562500Y-95262500D02*
X170350000Y-95475000D01*
X170800000Y-93680000D02*
X170800000Y-94689124D01*
X170800000Y-93680000D02*
X167000000Y-93680000D01*
D20*
X170300000Y-95525000D02*
X170275000Y-95550000D01*
D18*
X170275000Y-100512500D02*
X170275000Y-101153768D01*
X170537500Y-101787500D02*
X170704540Y-101954540D01*
D20*
%TO.N,Net-(U1-STDBY)*%
X156050000Y-93550000D02*
X157290000Y-93550000D01*
%TO.N,Net-(U1-CHRG)*%
X156050000Y-95250000D02*
X156062500Y-95262500D01*
X156092677Y-95275000D02*
X157265000Y-95275000D01*
D18*
%TO.N,Net-(D2-K)*%
X154766900Y-98928058D02*
X154766900Y-101896200D01*
D20*
X154760000Y-98911400D02*
X154753100Y-98904500D01*
%TO.N,Net-(D1-GK)*%
X156150000Y-91750000D02*
X156330000Y-91750000D01*
X156637279Y-91877279D02*
X158310000Y-93550000D01*
%TO.N,Net-(D1-RK)*%
X159350000Y-93456931D02*
X159350000Y-91750000D01*
X158817500Y-94742500D02*
X158285000Y-95275000D01*
%TO.N,Net-(U1-VREG)*%
X145250400Y-98141045D02*
X145250400Y-92687900D01*
X144058000Y-100176600D02*
X144654200Y-99580400D01*
X145250400Y-92481250D02*
X145250400Y-92687900D01*
X145250400Y-92481250D02*
X145250400Y-92687900D01*
D18*
%TO.N,GND*%
X165625000Y-100500000D02*
X167816367Y-100500000D01*
X165625000Y-100500000D02*
X167816367Y-100500000D01*
X165161611Y-100588388D02*
X165124999Y-100624999D01*
%TD*%
%TA.AperFunction,Conductor*%
%TO.N,GND*%
G36*
X165336971Y-90202381D02*
G01*
X165415618Y-90218024D01*
X165460308Y-90236535D01*
X165516626Y-90274166D01*
X165522519Y-90280059D01*
X165527251Y-90282119D01*
X165550832Y-90308371D01*
X165588462Y-90364688D01*
X165606976Y-90409387D01*
X165622617Y-90488019D01*
X165625000Y-90512210D01*
X165625000Y-105287789D01*
X165622617Y-105311980D01*
X165606976Y-105390612D01*
X165603786Y-105398313D01*
X165603694Y-105403473D01*
X165588462Y-105435311D01*
X165550836Y-105491623D01*
X165516623Y-105525836D01*
X165460311Y-105563462D01*
X165415612Y-105581976D01*
X165336980Y-105597617D01*
X165312789Y-105600000D01*
X153478015Y-105600000D01*
X153463675Y-105599168D01*
X153450353Y-105597617D01*
X153416234Y-105593644D01*
X153388321Y-105587055D01*
X153343409Y-105570775D01*
X153330226Y-105565113D01*
X153112118Y-105456059D01*
X153092995Y-105444216D01*
X153053927Y-105414805D01*
X153033612Y-105399511D01*
X153003279Y-105366545D01*
X152963656Y-105303649D01*
X152953444Y-105283611D01*
X152664186Y-104560462D01*
X152664178Y-104560448D01*
X152600000Y-104400000D01*
X150610329Y-104234194D01*
X150320387Y-104210032D01*
X150298963Y-104206334D01*
X150229466Y-104187943D01*
X150190168Y-104169716D01*
X150131236Y-104128541D01*
X150114575Y-104114575D01*
X149085859Y-103085859D01*
X149071833Y-103069112D01*
X149030517Y-103009872D01*
X149028254Y-103004971D01*
X149025984Y-103002885D01*
X149012272Y-102970363D01*
X148993968Y-102900494D01*
X148990318Y-102878972D01*
X148810415Y-100630190D01*
X148810752Y-100606850D01*
X148819128Y-100530179D01*
X148832757Y-100485722D01*
X148868787Y-100417534D01*
X148881584Y-100398019D01*
X149979125Y-99026092D01*
X149983135Y-99021332D01*
X149987913Y-99015939D01*
X149996953Y-99005736D01*
X150005671Y-98996841D01*
X150020992Y-98982708D01*
X150025673Y-98978605D01*
X151032449Y-98139625D01*
X151052977Y-98125743D01*
X151124945Y-98086945D01*
X151133454Y-98084368D01*
X151137857Y-98080916D01*
X151172163Y-98072642D01*
X151240897Y-98066175D01*
X151289959Y-98071420D01*
X151367882Y-98096105D01*
X151390653Y-98105919D01*
X152877728Y-98932072D01*
X152898135Y-98946258D01*
X152960380Y-98999529D01*
X152990788Y-99038536D01*
X153027261Y-99111898D01*
X153036039Y-99135150D01*
X153247051Y-99926442D01*
X153388827Y-100458103D01*
X153390653Y-100465973D01*
X153395885Y-100492402D01*
X153397983Y-100508405D01*
X153399737Y-100535276D01*
X153400000Y-100543353D01*
X153400000Y-100600000D01*
X153583029Y-101149087D01*
X153585799Y-101158666D01*
X153593737Y-101190920D01*
X153596929Y-101210589D01*
X153599599Y-101243708D01*
X153600000Y-101253672D01*
X153600000Y-103000000D01*
X154200000Y-103200000D01*
X156200000Y-103000000D01*
X156138460Y-101153815D01*
X156009976Y-97299290D01*
X156011446Y-97275698D01*
X156023713Y-97198578D01*
X156039809Y-97154323D01*
X156073724Y-97097729D01*
X156105162Y-97062666D01*
X156157736Y-97022800D01*
X156199979Y-97001991D01*
X156275311Y-96981415D01*
X156298602Y-96977390D01*
X159367256Y-96745038D01*
X160787500Y-96637500D01*
X161181257Y-90492494D01*
X161184926Y-90469488D01*
X161204154Y-90394912D01*
X161223960Y-90352920D01*
X161262250Y-90300299D01*
X161296116Y-90268535D01*
X161351074Y-90233690D01*
X161394252Y-90216609D01*
X161469887Y-90202193D01*
X161493104Y-90200000D01*
X165312789Y-90200000D01*
X165336971Y-90202381D01*
G37*
%TD.AperFunction*%
%TD*%
%TA.AperFunction,Conductor*%
%TO.N,GND*%
G36*
X165495610Y-94926717D02*
G01*
X165548876Y-94988847D01*
X165618960Y-95111873D01*
X165625000Y-95123780D01*
X165625000Y-95123781D01*
X165643291Y-95159843D01*
X165696881Y-95235445D01*
X165696883Y-95235447D01*
X165729339Y-95261425D01*
X165729346Y-95261430D01*
X165749693Y-95271416D01*
X165770041Y-95281403D01*
X165825227Y-95295175D01*
X165883997Y-95299245D01*
X165892013Y-95303235D01*
X165894888Y-95310917D01*
X165894888Y-95687779D01*
X165891461Y-95696052D01*
X165883188Y-95699479D01*
X165882679Y-95699468D01*
X165625000Y-95688253D01*
X165583397Y-95686443D01*
X165357655Y-95643157D01*
X165121964Y-95592314D01*
X165199000Y-95200000D01*
X165422228Y-94867412D01*
X165495610Y-94926717D01*
G37*
%TD.AperFunction*%
%TD*%
%TA.AperFunction,Conductor*%
%TO.N,Net-(J1-Pin_3)*%
G36*
X146934475Y-103730846D02*
G01*
X146988578Y-103800075D01*
X147043462Y-103849420D01*
X147063797Y-103861319D01*
X147097195Y-103880863D01*
X147097199Y-103880864D01*
X147097203Y-103880867D01*
X147154640Y-103905055D01*
X147199806Y-103923448D01*
X147200973Y-103924001D01*
X147300450Y-103978129D01*
X147330451Y-103994454D01*
X147336080Y-104001418D01*
X147335136Y-104010323D01*
X147334607Y-104011201D01*
X147176873Y-104248852D01*
X147173593Y-104252132D01*
X146935096Y-104410344D01*
X146926307Y-104412062D01*
X146919023Y-104407275D01*
X146751929Y-104167058D01*
X146604415Y-103957746D01*
X146602451Y-103949009D01*
X146607238Y-103941443D01*
X146918652Y-103728395D01*
X146927414Y-103726553D01*
X146934475Y-103730846D01*
G37*
%TD.AperFunction*%
%TD*%
%TA.AperFunction,Conductor*%
%TO.N,Net-(J1-Pin_3)*%
G36*
X147222812Y-94839810D02*
G01*
X147223186Y-94840048D01*
X147457423Y-94995455D01*
X147461234Y-94997984D01*
X147464515Y-95001265D01*
X147622432Y-95239283D01*
X147624151Y-95248071D01*
X147619151Y-95255500D01*
X147618747Y-95255757D01*
X147448585Y-95358874D01*
X147448472Y-95358942D01*
X147359316Y-95411610D01*
X147282697Y-95469378D01*
X147191997Y-95553908D01*
X147183608Y-95557042D01*
X147175747Y-95553622D01*
X146908674Y-95286549D01*
X146905247Y-95278276D01*
X146908185Y-95270524D01*
X147031219Y-95131507D01*
X147103574Y-95013998D01*
X147113279Y-94997984D01*
X147125421Y-94977946D01*
X147206743Y-94843751D01*
X147213960Y-94838453D01*
X147222812Y-94839810D01*
G37*
%TD.AperFunction*%
%TD*%
%TA.AperFunction,Conductor*%
%TO.N,Net-(D1-GK)*%
G36*
X156326364Y-91507027D02*
G01*
X156359199Y-91528939D01*
X156359449Y-91529111D01*
X156563127Y-91672821D01*
X156564419Y-91673878D01*
X156754090Y-91853149D01*
X156757748Y-91861322D01*
X156754556Y-91869689D01*
X156754326Y-91869925D01*
X156628622Y-91995629D01*
X156620349Y-91999056D01*
X156613289Y-91996686D01*
X156555170Y-91952705D01*
X156552353Y-91952061D01*
X156496512Y-91939297D01*
X156496511Y-91939297D01*
X156439533Y-91952061D01*
X156378305Y-91980460D01*
X156327416Y-92005030D01*
X156325984Y-92005608D01*
X156221056Y-92040115D01*
X156212126Y-92039445D01*
X156206287Y-92032656D01*
X156205930Y-92031305D01*
X156200653Y-92005030D01*
X156150254Y-91754078D01*
X156151985Y-91745293D01*
X156152018Y-91745243D01*
X156200041Y-91673878D01*
X156310164Y-91510227D01*
X156317626Y-91505277D01*
X156326364Y-91507027D01*
G37*
%TD.AperFunction*%
%TD*%
%TA.AperFunction,Conductor*%
%TO.N,Net-(U1-VS)*%
G36*
X141786306Y-101010344D02*
G01*
X141789750Y-101017033D01*
X141799990Y-101085696D01*
X141829235Y-101136861D01*
X141871946Y-101170424D01*
X141923827Y-101196298D01*
X141924350Y-101196576D01*
X142024876Y-101253480D01*
X142027702Y-101255719D01*
X142090168Y-101323298D01*
X142093267Y-101331700D01*
X142089518Y-101339832D01*
X142088103Y-101340950D01*
X141850071Y-101500963D01*
X141850017Y-101500999D01*
X141609748Y-101660568D01*
X141600960Y-101662291D01*
X141593926Y-101657857D01*
X141453473Y-101471216D01*
X141453439Y-101471171D01*
X141361816Y-101348184D01*
X141360781Y-101346517D01*
X141333512Y-101292969D01*
X141332841Y-101291366D01*
X141320935Y-101255719D01*
X141312030Y-101229056D01*
X141311608Y-101227399D01*
X141295481Y-101136089D01*
X141295323Y-101134741D01*
X141289029Y-101027728D01*
X141291964Y-101019271D01*
X141300022Y-101015364D01*
X141300484Y-101015346D01*
X141777975Y-101007061D01*
X141786306Y-101010344D01*
G37*
%TD.AperFunction*%
%TD*%
%TA.AperFunction,Conductor*%
%TO.N,Net-(U1-VS)*%
G36*
X150313486Y-105585025D02*
G01*
X150318785Y-105592243D01*
X150318890Y-105592711D01*
X150375530Y-105872680D01*
X150375530Y-105877320D01*
X150318890Y-106157288D01*
X150313890Y-106164717D01*
X150305102Y-106166436D01*
X150304634Y-106166331D01*
X150111361Y-106118914D01*
X150111234Y-106118882D01*
X150010994Y-106093092D01*
X150010995Y-106093092D01*
X149947636Y-106084204D01*
X149915959Y-106079761D01*
X149915961Y-106079761D01*
X149792052Y-106075397D01*
X149783905Y-106071681D01*
X149780764Y-106063704D01*
X149780764Y-105686007D01*
X149784191Y-105677734D01*
X149791749Y-105674329D01*
X149910560Y-105667083D01*
X149977039Y-105663029D01*
X149977041Y-105663028D01*
X149977048Y-105663028D01*
X150111303Y-105631099D01*
X150304635Y-105583668D01*
X150313486Y-105585025D01*
G37*
%TD.AperFunction*%
%TD*%
%TA.AperFunction,Conductor*%
%TO.N,Net-(U1-VS)*%
G36*
X142105500Y-101343348D02*
G01*
X142105757Y-101343752D01*
X142208924Y-101513996D01*
X142261608Y-101603179D01*
X142319379Y-101679802D01*
X142403908Y-101770503D01*
X142407042Y-101778891D01*
X142403622Y-101786752D01*
X142136549Y-102053825D01*
X142128276Y-102057252D01*
X142120522Y-102054313D01*
X141981513Y-101931286D01*
X141981510Y-101931284D01*
X141981506Y-101931280D01*
X141863996Y-101858924D01*
X141863960Y-101858902D01*
X141863960Y-101858901D01*
X141693752Y-101755757D01*
X141688453Y-101748539D01*
X141689810Y-101739687D01*
X141690033Y-101739336D01*
X141847985Y-101501263D01*
X141851263Y-101497985D01*
X142089286Y-101340066D01*
X142098071Y-101338348D01*
X142105500Y-101343348D01*
G37*
%TD.AperFunction*%
%TD*%
%TA.AperFunction,Conductor*%
%TO.N,Net-(J1-Pin_3)*%
G36*
X147430368Y-104093436D02*
G01*
X147430703Y-104093971D01*
X147468106Y-104157539D01*
X147468773Y-104158857D01*
X147496047Y-104222394D01*
X147496629Y-104224103D01*
X147524697Y-104333574D01*
X147524808Y-104334044D01*
X147534712Y-104380579D01*
X147534713Y-104380581D01*
X147573205Y-104481806D01*
X147610374Y-104537294D01*
X147610376Y-104537296D01*
X147610378Y-104537299D01*
X147614789Y-104542239D01*
X147658533Y-104591229D01*
X147661487Y-104599683D01*
X147658079Y-104607295D01*
X147532180Y-104733194D01*
X147523907Y-104736621D01*
X147516244Y-104733763D01*
X147448102Y-104674705D01*
X147381253Y-104635202D01*
X147381251Y-104635201D01*
X147381249Y-104635200D01*
X147381250Y-104635200D01*
X147319608Y-104613265D01*
X147319606Y-104613264D01*
X147319602Y-104613263D01*
X147273357Y-104602990D01*
X147259011Y-104599803D01*
X147258592Y-104599701D01*
X147143863Y-104569744D01*
X147142117Y-104569138D01*
X147080823Y-104542239D01*
X147079567Y-104541594D01*
X147018929Y-104505713D01*
X147013554Y-104498551D01*
X147014818Y-104489686D01*
X147015112Y-104489216D01*
X147172985Y-104251263D01*
X147176263Y-104247985D01*
X147414153Y-104090154D01*
X147422939Y-104088436D01*
X147430368Y-104093436D01*
G37*
%TD.AperFunction*%
%TD*%
%TA.AperFunction,Conductor*%
%TO.N,Net-(J1-Pin_3)*%
G36*
X151483505Y-104928488D02*
G01*
X151488880Y-104935650D01*
X151489015Y-104936237D01*
X151545630Y-105216080D01*
X151545630Y-105220720D01*
X151489021Y-105500532D01*
X151484021Y-105507961D01*
X151475233Y-105509680D01*
X151474618Y-105509538D01*
X151439862Y-105500532D01*
X151403219Y-105491037D01*
X151401823Y-105490579D01*
X151373769Y-105479376D01*
X151337603Y-105464935D01*
X151335983Y-105464138D01*
X151238714Y-105406569D01*
X151238303Y-105406314D01*
X151198408Y-105380420D01*
X151099618Y-105336063D01*
X151099617Y-105336062D01*
X151034091Y-105323108D01*
X150961903Y-105319024D01*
X150953837Y-105315136D01*
X150950864Y-105307343D01*
X150950864Y-105129293D01*
X150954291Y-105121020D01*
X150961728Y-105117624D01*
X151051674Y-105111200D01*
X151126876Y-105091864D01*
X151185983Y-105063783D01*
X151238354Y-105030450D01*
X151238641Y-105030274D01*
X151341039Y-104970279D01*
X151342684Y-104969483D01*
X151405056Y-104945158D01*
X151406366Y-104944736D01*
X151474641Y-104927224D01*
X151483505Y-104928488D01*
G37*
%TD.AperFunction*%
%TD*%
%TA.AperFunction,Conductor*%
%TO.N,GND*%
G36*
X164811609Y-101871233D02*
G01*
X164681279Y-102018493D01*
X164608923Y-102136004D01*
X164499441Y-102316671D01*
X164249293Y-102150707D01*
X164083329Y-101900559D01*
X164263998Y-101791074D01*
X164353179Y-101738392D01*
X164429802Y-101680620D01*
X164528766Y-101588391D01*
X164811609Y-101871233D01*
G37*
%TD.AperFunction*%
%TD*%
%TA.AperFunction,Conductor*%
%TO.N,Net-(D2-K)*%
G36*
X152255302Y-95843480D02*
G01*
X152255674Y-95844078D01*
X152291699Y-95906196D01*
X152292423Y-95907675D01*
X152317747Y-95970215D01*
X152318337Y-95972131D01*
X152341858Y-96080813D01*
X152341954Y-96081309D01*
X152350493Y-96131121D01*
X152384825Y-96228374D01*
X152384826Y-96228376D01*
X152384826Y-96228377D01*
X152419480Y-96281375D01*
X152464383Y-96332008D01*
X152467308Y-96340471D01*
X152463902Y-96348044D01*
X152196753Y-96615193D01*
X152188480Y-96618620D01*
X152180595Y-96615564D01*
X152180188Y-96615193D01*
X152006029Y-96456338D01*
X151905655Y-96365772D01*
X151904680Y-96364778D01*
X151836120Y-96286008D01*
X151835439Y-96285147D01*
X151757576Y-96176465D01*
X151755543Y-96167744D01*
X151760273Y-96160140D01*
X151760532Y-96159959D01*
X151999293Y-95999293D01*
X151999296Y-95999298D01*
X151999347Y-95999257D01*
X152239086Y-95840198D01*
X152247873Y-95838480D01*
X152255302Y-95843480D01*
G37*
%TD.AperFunction*%
%TD*%
%TA.AperFunction,Conductor*%
%TO.N,Net-(D2-K)*%
G36*
X154482576Y-98350185D02*
G01*
X154621593Y-98473219D01*
X154621595Y-98473220D01*
X154739138Y-98545597D01*
X154909347Y-98648742D01*
X154914646Y-98655960D01*
X154913289Y-98664812D01*
X154913032Y-98665216D01*
X154755115Y-98903234D01*
X154751834Y-98906515D01*
X154513816Y-99064432D01*
X154505028Y-99066151D01*
X154497599Y-99061151D01*
X154497342Y-99060747D01*
X154394224Y-98890583D01*
X154394156Y-98890470D01*
X154341492Y-98801320D01*
X154283720Y-98724697D01*
X154199190Y-98633995D01*
X154196057Y-98625608D01*
X154199476Y-98617748D01*
X154466551Y-98350673D01*
X154474823Y-98347247D01*
X154482576Y-98350185D01*
G37*
%TD.AperFunction*%
%TD*%
%TA.AperFunction,Conductor*%
%TO.N,Net-(D2-K)*%
G36*
X151938486Y-95710025D02*
G01*
X151943785Y-95717243D01*
X151943890Y-95717711D01*
X152000530Y-95997680D01*
X152000530Y-96002320D01*
X151943890Y-96282288D01*
X151938890Y-96289717D01*
X151930102Y-96291436D01*
X151929634Y-96291331D01*
X151736361Y-96243914D01*
X151736234Y-96243882D01*
X151635994Y-96218092D01*
X151635995Y-96218092D01*
X151572636Y-96209204D01*
X151540959Y-96204761D01*
X151540961Y-96204761D01*
X151417052Y-96200397D01*
X151408905Y-96196681D01*
X151405764Y-96188704D01*
X151405764Y-95811007D01*
X151409191Y-95802734D01*
X151416749Y-95799329D01*
X151535560Y-95792083D01*
X151602039Y-95788029D01*
X151602041Y-95788028D01*
X151602048Y-95788028D01*
X151736303Y-95756099D01*
X151929635Y-95708668D01*
X151938486Y-95710025D01*
G37*
%TD.AperFunction*%
%TD*%
%TA.AperFunction,Conductor*%
%TO.N,Net-(D2-K)*%
G36*
X147347265Y-100909191D02*
G01*
X147350670Y-100916752D01*
X147361970Y-101102040D01*
X147361971Y-101102048D01*
X147361972Y-101102049D01*
X147370044Y-101135992D01*
X147393911Y-101236345D01*
X147441331Y-101429634D01*
X147439974Y-101438486D01*
X147432756Y-101443785D01*
X147432288Y-101443890D01*
X147152320Y-101500530D01*
X147147680Y-101500530D01*
X146867711Y-101443890D01*
X146860282Y-101438890D01*
X146858563Y-101430102D01*
X146858668Y-101429634D01*
X146906085Y-101236359D01*
X146906117Y-101236232D01*
X146931908Y-101135992D01*
X146931909Y-101135989D01*
X146945239Y-101040957D01*
X146949602Y-100917050D01*
X146953318Y-100908905D01*
X146961295Y-100905764D01*
X147338992Y-100905764D01*
X147347265Y-100909191D01*
G37*
%TD.AperFunction*%
%TD*%
%TA.AperFunction,Conductor*%
%TO.N,Net-(U1-VS)*%
G36*
X141820666Y-95056287D02*
G01*
X141828095Y-95061287D01*
X141829888Y-95069668D01*
X141792108Y-95297571D01*
X141787229Y-95500285D01*
X141787466Y-95582502D01*
X141784063Y-95590785D01*
X141775800Y-95594236D01*
X141299234Y-95594236D01*
X141290961Y-95590809D01*
X141287534Y-95582536D01*
X141287534Y-95582502D01*
X141287566Y-95571110D01*
X141287771Y-95500280D01*
X141282892Y-95297582D01*
X141282890Y-95297571D01*
X141268902Y-95213191D01*
X141245110Y-95069665D01*
X141247137Y-95060946D01*
X141254330Y-95056288D01*
X141535182Y-94999469D01*
X141539818Y-94999469D01*
X141820666Y-95056287D01*
G37*
%TD.AperFunction*%
%TD*%
%TA.AperFunction,Conductor*%
%TO.N,Net-(J2-CC1)*%
G36*
X166990459Y-98208856D02*
G01*
X167061889Y-98227365D01*
X167063266Y-98227816D01*
X167127495Y-98253464D01*
X167129115Y-98254261D01*
X167226384Y-98311830D01*
X167226793Y-98312083D01*
X167266690Y-98337978D01*
X167266694Y-98337980D01*
X167266693Y-98337980D01*
X167365481Y-98382336D01*
X167365482Y-98382337D01*
X167365485Y-98382337D01*
X167365486Y-98382338D01*
X167431011Y-98395292D01*
X167503198Y-98399375D01*
X167511263Y-98403263D01*
X167514236Y-98411056D01*
X167514236Y-98589106D01*
X167510809Y-98597379D01*
X167503369Y-98600776D01*
X167413426Y-98607199D01*
X167338228Y-98626534D01*
X167338226Y-98626534D01*
X167279112Y-98654618D01*
X167226787Y-98687922D01*
X167226420Y-98688147D01*
X167124069Y-98748114D01*
X167122405Y-98748919D01*
X167060060Y-98773235D01*
X167058716Y-98773668D01*
X166990459Y-98791175D01*
X166981594Y-98789911D01*
X166976219Y-98782749D01*
X166976084Y-98782162D01*
X166969359Y-98748919D01*
X166919469Y-98502318D01*
X166919469Y-98497680D01*
X166939357Y-98399375D01*
X166976078Y-98217866D01*
X166981078Y-98210438D01*
X166989866Y-98208719D01*
X166990459Y-98208856D01*
G37*
%TD.AperFunction*%
%TD*%
%TA.AperFunction,Conductor*%
%TO.N,Net-(J2-CC2)*%
G36*
X166990459Y-97208856D02*
G01*
X167061889Y-97227365D01*
X167063266Y-97227816D01*
X167127495Y-97253464D01*
X167129115Y-97254261D01*
X167226384Y-97311830D01*
X167226793Y-97312083D01*
X167266690Y-97337978D01*
X167266694Y-97337980D01*
X167266693Y-97337980D01*
X167365481Y-97382336D01*
X167365482Y-97382337D01*
X167365485Y-97382337D01*
X167365486Y-97382338D01*
X167431011Y-97395292D01*
X167503198Y-97399375D01*
X167511263Y-97403263D01*
X167514236Y-97411056D01*
X167514236Y-97589106D01*
X167510809Y-97597379D01*
X167503369Y-97600776D01*
X167413426Y-97607199D01*
X167338228Y-97626534D01*
X167338226Y-97626534D01*
X167279112Y-97654618D01*
X167226787Y-97687922D01*
X167226420Y-97688147D01*
X167124069Y-97748114D01*
X167122405Y-97748919D01*
X167060060Y-97773235D01*
X167058716Y-97773668D01*
X166990459Y-97791175D01*
X166981594Y-97789911D01*
X166976219Y-97782749D01*
X166976084Y-97782162D01*
X166969359Y-97748919D01*
X166919469Y-97502318D01*
X166919469Y-97497680D01*
X166939357Y-97399375D01*
X166976078Y-97217866D01*
X166981078Y-97210438D01*
X166989866Y-97208719D01*
X166990459Y-97208856D01*
G37*
%TD.AperFunction*%
%TD*%
%TA.AperFunction,Conductor*%
%TO.N,Net-(U1-STDBY)*%
G36*
X156120459Y-93258856D02*
G01*
X156191889Y-93277365D01*
X156193266Y-93277816D01*
X156257495Y-93303464D01*
X156259115Y-93304261D01*
X156356384Y-93361830D01*
X156356793Y-93362083D01*
X156396690Y-93387978D01*
X156396694Y-93387980D01*
X156396693Y-93387980D01*
X156495481Y-93432336D01*
X156495482Y-93432337D01*
X156495485Y-93432337D01*
X156495486Y-93432338D01*
X156561011Y-93445292D01*
X156633198Y-93449375D01*
X156641263Y-93453263D01*
X156644236Y-93461056D01*
X156644236Y-93639106D01*
X156640809Y-93647379D01*
X156633369Y-93650776D01*
X156543426Y-93657199D01*
X156468228Y-93676534D01*
X156468226Y-93676534D01*
X156409112Y-93704618D01*
X156356787Y-93737922D01*
X156356420Y-93738147D01*
X156254069Y-93798114D01*
X156252405Y-93798919D01*
X156190060Y-93823235D01*
X156188716Y-93823668D01*
X156120459Y-93841175D01*
X156111594Y-93839911D01*
X156106219Y-93832749D01*
X156106084Y-93832162D01*
X156099359Y-93798919D01*
X156049469Y-93552318D01*
X156049469Y-93547680D01*
X156069357Y-93449375D01*
X156106078Y-93267866D01*
X156111078Y-93260438D01*
X156119866Y-93258719D01*
X156120459Y-93258856D01*
G37*
%TD.AperFunction*%
%TD*%
%TA.AperFunction,Conductor*%
%TO.N,Net-(U1-CHRG)*%
G36*
X156120563Y-94959018D02*
G01*
X156193951Y-94978861D01*
X156195605Y-94979445D01*
X156260453Y-95007978D01*
X156262322Y-95009013D01*
X156359375Y-95075035D01*
X156359748Y-95075300D01*
X156409787Y-95112353D01*
X156503323Y-95157230D01*
X156503325Y-95157230D01*
X156503330Y-95157232D01*
X156565745Y-95170278D01*
X156565747Y-95170278D01*
X156565751Y-95170279D01*
X156633239Y-95174338D01*
X156641291Y-95178256D01*
X156644236Y-95186017D01*
X156644236Y-95363991D01*
X156640809Y-95372264D01*
X156633248Y-95375669D01*
X156542880Y-95381177D01*
X156542878Y-95381177D01*
X156466905Y-95397836D01*
X156352406Y-95451344D01*
X156264632Y-95496519D01*
X156262685Y-95497309D01*
X156120848Y-95540485D01*
X156111936Y-95539616D01*
X156106248Y-95532699D01*
X156105973Y-95531612D01*
X156089734Y-95451344D01*
X156049469Y-95252318D01*
X156049469Y-95247680D01*
X156061944Y-95186017D01*
X156106052Y-94967993D01*
X156111052Y-94960566D01*
X156119840Y-94958847D01*
X156120563Y-94959018D01*
G37*
%TD.AperFunction*%
%TD*%
%TA.AperFunction,Conductor*%
%TO.N,Net-(D2-K)*%
G36*
X155035631Y-98960659D02*
G01*
X155043059Y-98965658D01*
X155044778Y-98974446D01*
X155044728Y-98974681D01*
X155007031Y-99143164D01*
X155007018Y-99143220D01*
X154986619Y-99232336D01*
X154971864Y-99340272D01*
X154967255Y-99487402D01*
X154963571Y-99495564D01*
X154955561Y-99498736D01*
X154577772Y-99498736D01*
X154569499Y-99495309D01*
X154566103Y-99487894D01*
X154566067Y-99487402D01*
X154553000Y-99309644D01*
X154517835Y-99182369D01*
X154512912Y-99167459D01*
X154512710Y-99166780D01*
X154462034Y-98975023D01*
X154463234Y-98966149D01*
X154470357Y-98960722D01*
X154471009Y-98960569D01*
X154750782Y-98903969D01*
X154755418Y-98903969D01*
X155035631Y-98960659D01*
G37*
%TD.AperFunction*%
%TD*%
%TA.AperFunction,Conductor*%
%TO.N,Net-(D2-K)*%
G36*
X154964165Y-101305391D02*
G01*
X154967570Y-101312952D01*
X154978870Y-101498240D01*
X154978871Y-101498248D01*
X154978872Y-101498249D01*
X154986944Y-101532192D01*
X155010811Y-101632545D01*
X155058231Y-101825834D01*
X155056874Y-101834686D01*
X155049656Y-101839985D01*
X155049188Y-101840090D01*
X154769220Y-101896730D01*
X154764580Y-101896730D01*
X154484611Y-101840090D01*
X154477182Y-101835090D01*
X154475463Y-101826302D01*
X154475568Y-101825834D01*
X154522985Y-101632559D01*
X154523017Y-101632432D01*
X154548808Y-101532192D01*
X154548809Y-101532189D01*
X154562139Y-101437157D01*
X154566502Y-101313250D01*
X154570218Y-101305105D01*
X154578195Y-101301964D01*
X154955892Y-101301964D01*
X154964165Y-101305391D01*
G37*
%TD.AperFunction*%
%TD*%
%TA.AperFunction,Conductor*%
%TO.N,Net-(D1-RK)*%
G36*
X159632132Y-91806078D02*
G01*
X159639561Y-91811078D01*
X159641280Y-91819866D01*
X159641138Y-91820481D01*
X159622638Y-91891875D01*
X159622178Y-91893279D01*
X159596535Y-91957495D01*
X159595738Y-91959115D01*
X159538169Y-92056384D01*
X159537914Y-92056795D01*
X159512020Y-92096690D01*
X159467663Y-92195480D01*
X159467662Y-92195481D01*
X159454708Y-92261005D01*
X159454708Y-92261010D01*
X159450624Y-92333197D01*
X159446736Y-92341263D01*
X159438943Y-92344236D01*
X159260894Y-92344236D01*
X159252621Y-92340809D01*
X159249224Y-92333369D01*
X159242800Y-92243426D01*
X159242800Y-92243425D01*
X159223464Y-92168223D01*
X159195383Y-92109116D01*
X159195382Y-92109115D01*
X159195381Y-92109112D01*
X159162077Y-92056787D01*
X159161852Y-92056420D01*
X159101884Y-91954068D01*
X159101079Y-91952404D01*
X159076760Y-91890047D01*
X159076334Y-91888727D01*
X159058824Y-91820457D01*
X159060088Y-91811594D01*
X159067250Y-91806219D01*
X159067818Y-91806088D01*
X159347682Y-91749469D01*
X159352318Y-91749469D01*
X159632132Y-91806078D01*
G37*
%TD.AperFunction*%
%TD*%
%TA.AperFunction,Conductor*%
%TO.N,Net-(U1-VREG)*%
G36*
X145532532Y-92743978D02*
G01*
X145539961Y-92748978D01*
X145541680Y-92757766D01*
X145541538Y-92758381D01*
X145523038Y-92829775D01*
X145522578Y-92831179D01*
X145496935Y-92895395D01*
X145496138Y-92897015D01*
X145438569Y-92994284D01*
X145438314Y-92994695D01*
X145412420Y-93034590D01*
X145368063Y-93133380D01*
X145368062Y-93133381D01*
X145355108Y-93198905D01*
X145355108Y-93198910D01*
X145351024Y-93271097D01*
X145347136Y-93279163D01*
X145339343Y-93282136D01*
X145161294Y-93282136D01*
X145153021Y-93278709D01*
X145149624Y-93271269D01*
X145143200Y-93181326D01*
X145143200Y-93181325D01*
X145123864Y-93106123D01*
X145095783Y-93047016D01*
X145095782Y-93047015D01*
X145095781Y-93047012D01*
X145062477Y-92994687D01*
X145062252Y-92994320D01*
X145002284Y-92891968D01*
X145001479Y-92890304D01*
X144977160Y-92827947D01*
X144976734Y-92826627D01*
X144959224Y-92758357D01*
X144960488Y-92749494D01*
X144967650Y-92744119D01*
X144968218Y-92743988D01*
X145248082Y-92687369D01*
X145252718Y-92687369D01*
X145532532Y-92743978D01*
G37*
%TD.AperFunction*%
%TD*%
%TA.AperFunction,Conductor*%
%TO.N,Net-(U1-VREG)*%
G36*
X144415295Y-99693520D02*
G01*
X144541194Y-99819419D01*
X144544621Y-99827692D01*
X144541763Y-99835355D01*
X144482703Y-99903499D01*
X144443200Y-99970348D01*
X144421265Y-100031990D01*
X144407803Y-100092587D01*
X144407701Y-100093006D01*
X144377744Y-100207736D01*
X144377138Y-100209482D01*
X144350239Y-100270776D01*
X144349594Y-100272032D01*
X144313713Y-100332670D01*
X144306551Y-100338045D01*
X144297686Y-100336781D01*
X144297188Y-100336468D01*
X144105789Y-100209482D01*
X144059265Y-100178615D01*
X144055984Y-100175334D01*
X143960885Y-100031997D01*
X143898154Y-99937447D01*
X143896436Y-99928660D01*
X143901436Y-99921231D01*
X143901935Y-99920918D01*
X143965549Y-99883488D01*
X143966849Y-99882830D01*
X144030396Y-99855550D01*
X144032102Y-99854969D01*
X144141590Y-99826897D01*
X144142031Y-99826793D01*
X144188579Y-99816887D01*
X144289806Y-99778395D01*
X144345299Y-99741222D01*
X144399230Y-99693065D01*
X144407683Y-99690112D01*
X144415295Y-99693520D01*
G37*
%TD.AperFunction*%
%TD*%
M02*
