%TF.GenerationSoftware,KiCad,Pcbnew,9.0.6*%
%TF.CreationDate,2025-11-02T21:38:21+05:30*%
%TF.ProjectId,Helmet_bt_headset,48656c6d-6574-45f6-9274-5f6865616473,rev?*%
%TF.SameCoordinates,Original*%
%TF.FileFunction,Legend,Bot*%
%TF.FilePolarity,Positive*%
%FSLAX46Y46*%
G04 Gerber Fmt 4.6, Leading zero omitted, Abs format (unit mm)*
G04 Created by KiCad (PCBNEW 9.0.6) date 2025-11-02 21:38:21*
%MOMM*%
%LPD*%
G01*
G04 APERTURE LIST*
%ADD10C,0.150000*%
%ADD11C,0.120000*%
G04 APERTURE END LIST*
D10*
X157858332Y-96762295D02*
X158124999Y-96381342D01*
X158315475Y-96762295D02*
X158315475Y-95962295D01*
X158315475Y-95962295D02*
X158010713Y-95962295D01*
X158010713Y-95962295D02*
X157934523Y-96000390D01*
X157934523Y-96000390D02*
X157896428Y-96038485D01*
X157896428Y-96038485D02*
X157858332Y-96114676D01*
X157858332Y-96114676D02*
X157858332Y-96228961D01*
X157858332Y-96228961D02*
X157896428Y-96305152D01*
X157896428Y-96305152D02*
X157934523Y-96343247D01*
X157934523Y-96343247D02*
X158010713Y-96381342D01*
X158010713Y-96381342D02*
X158315475Y-96381342D01*
X157096428Y-96762295D02*
X157553571Y-96762295D01*
X157324999Y-96762295D02*
X157324999Y-95962295D01*
X157324999Y-95962295D02*
X157401190Y-96076580D01*
X157401190Y-96076580D02*
X157477380Y-96152771D01*
X157477380Y-96152771D02*
X157553571Y-96190866D01*
X171841666Y-99204819D02*
X172174999Y-98728628D01*
X172413094Y-99204819D02*
X172413094Y-98204819D01*
X172413094Y-98204819D02*
X172032142Y-98204819D01*
X172032142Y-98204819D02*
X171936904Y-98252438D01*
X171936904Y-98252438D02*
X171889285Y-98300057D01*
X171889285Y-98300057D02*
X171841666Y-98395295D01*
X171841666Y-98395295D02*
X171841666Y-98538152D01*
X171841666Y-98538152D02*
X171889285Y-98633390D01*
X171889285Y-98633390D02*
X171936904Y-98681009D01*
X171936904Y-98681009D02*
X172032142Y-98728628D01*
X172032142Y-98728628D02*
X172413094Y-98728628D01*
X171270237Y-98633390D02*
X171365475Y-98585771D01*
X171365475Y-98585771D02*
X171413094Y-98538152D01*
X171413094Y-98538152D02*
X171460713Y-98442914D01*
X171460713Y-98442914D02*
X171460713Y-98395295D01*
X171460713Y-98395295D02*
X171413094Y-98300057D01*
X171413094Y-98300057D02*
X171365475Y-98252438D01*
X171365475Y-98252438D02*
X171270237Y-98204819D01*
X171270237Y-98204819D02*
X171079761Y-98204819D01*
X171079761Y-98204819D02*
X170984523Y-98252438D01*
X170984523Y-98252438D02*
X170936904Y-98300057D01*
X170936904Y-98300057D02*
X170889285Y-98395295D01*
X170889285Y-98395295D02*
X170889285Y-98442914D01*
X170889285Y-98442914D02*
X170936904Y-98538152D01*
X170936904Y-98538152D02*
X170984523Y-98585771D01*
X170984523Y-98585771D02*
X171079761Y-98633390D01*
X171079761Y-98633390D02*
X171270237Y-98633390D01*
X171270237Y-98633390D02*
X171365475Y-98681009D01*
X171365475Y-98681009D02*
X171413094Y-98728628D01*
X171413094Y-98728628D02*
X171460713Y-98823866D01*
X171460713Y-98823866D02*
X171460713Y-99014342D01*
X171460713Y-99014342D02*
X171413094Y-99109580D01*
X171413094Y-99109580D02*
X171365475Y-99157200D01*
X171365475Y-99157200D02*
X171270237Y-99204819D01*
X171270237Y-99204819D02*
X171079761Y-99204819D01*
X171079761Y-99204819D02*
X170984523Y-99157200D01*
X170984523Y-99157200D02*
X170936904Y-99109580D01*
X170936904Y-99109580D02*
X170889285Y-99014342D01*
X170889285Y-99014342D02*
X170889285Y-98823866D01*
X170889285Y-98823866D02*
X170936904Y-98728628D01*
X170936904Y-98728628D02*
X170984523Y-98681009D01*
X170984523Y-98681009D02*
X171079761Y-98633390D01*
X171766666Y-97729819D02*
X172099999Y-97253628D01*
X172338094Y-97729819D02*
X172338094Y-96729819D01*
X172338094Y-96729819D02*
X171957142Y-96729819D01*
X171957142Y-96729819D02*
X171861904Y-96777438D01*
X171861904Y-96777438D02*
X171814285Y-96825057D01*
X171814285Y-96825057D02*
X171766666Y-96920295D01*
X171766666Y-96920295D02*
X171766666Y-97063152D01*
X171766666Y-97063152D02*
X171814285Y-97158390D01*
X171814285Y-97158390D02*
X171861904Y-97206009D01*
X171861904Y-97206009D02*
X171957142Y-97253628D01*
X171957142Y-97253628D02*
X172338094Y-97253628D01*
X171433332Y-96729819D02*
X170766666Y-96729819D01*
X170766666Y-96729819D02*
X171195237Y-97729819D01*
X169066666Y-94704819D02*
X169399999Y-94228628D01*
X169638094Y-94704819D02*
X169638094Y-93704819D01*
X169638094Y-93704819D02*
X169257142Y-93704819D01*
X169257142Y-93704819D02*
X169161904Y-93752438D01*
X169161904Y-93752438D02*
X169114285Y-93800057D01*
X169114285Y-93800057D02*
X169066666Y-93895295D01*
X169066666Y-93895295D02*
X169066666Y-94038152D01*
X169066666Y-94038152D02*
X169114285Y-94133390D01*
X169114285Y-94133390D02*
X169161904Y-94181009D01*
X169161904Y-94181009D02*
X169257142Y-94228628D01*
X169257142Y-94228628D02*
X169638094Y-94228628D01*
X168590475Y-94704819D02*
X168399999Y-94704819D01*
X168399999Y-94704819D02*
X168304761Y-94657200D01*
X168304761Y-94657200D02*
X168257142Y-94609580D01*
X168257142Y-94609580D02*
X168161904Y-94466723D01*
X168161904Y-94466723D02*
X168114285Y-94276247D01*
X168114285Y-94276247D02*
X168114285Y-93895295D01*
X168114285Y-93895295D02*
X168161904Y-93800057D01*
X168161904Y-93800057D02*
X168209523Y-93752438D01*
X168209523Y-93752438D02*
X168304761Y-93704819D01*
X168304761Y-93704819D02*
X168495237Y-93704819D01*
X168495237Y-93704819D02*
X168590475Y-93752438D01*
X168590475Y-93752438D02*
X168638094Y-93800057D01*
X168638094Y-93800057D02*
X168685713Y-93895295D01*
X168685713Y-93895295D02*
X168685713Y-94133390D01*
X168685713Y-94133390D02*
X168638094Y-94228628D01*
X168638094Y-94228628D02*
X168590475Y-94276247D01*
X168590475Y-94276247D02*
X168495237Y-94323866D01*
X168495237Y-94323866D02*
X168304761Y-94323866D01*
X168304761Y-94323866D02*
X168209523Y-94276247D01*
X168209523Y-94276247D02*
X168161904Y-94228628D01*
X168161904Y-94228628D02*
X168114285Y-94133390D01*
X157858332Y-92812295D02*
X158124999Y-92431342D01*
X158315475Y-92812295D02*
X158315475Y-92012295D01*
X158315475Y-92012295D02*
X158010713Y-92012295D01*
X158010713Y-92012295D02*
X157934523Y-92050390D01*
X157934523Y-92050390D02*
X157896428Y-92088485D01*
X157896428Y-92088485D02*
X157858332Y-92164676D01*
X157858332Y-92164676D02*
X157858332Y-92278961D01*
X157858332Y-92278961D02*
X157896428Y-92355152D01*
X157896428Y-92355152D02*
X157934523Y-92393247D01*
X157934523Y-92393247D02*
X158010713Y-92431342D01*
X158010713Y-92431342D02*
X158315475Y-92431342D01*
X157553571Y-92088485D02*
X157515475Y-92050390D01*
X157515475Y-92050390D02*
X157439285Y-92012295D01*
X157439285Y-92012295D02*
X157248809Y-92012295D01*
X157248809Y-92012295D02*
X157172618Y-92050390D01*
X157172618Y-92050390D02*
X157134523Y-92088485D01*
X157134523Y-92088485D02*
X157096428Y-92164676D01*
X157096428Y-92164676D02*
X157096428Y-92240866D01*
X157096428Y-92240866D02*
X157134523Y-92355152D01*
X157134523Y-92355152D02*
X157591666Y-92812295D01*
X157591666Y-92812295D02*
X157096428Y-92812295D01*
X172264285Y-101311104D02*
X172302381Y-101349200D01*
X172302381Y-101349200D02*
X172416666Y-101387295D01*
X172416666Y-101387295D02*
X172492857Y-101387295D01*
X172492857Y-101387295D02*
X172607143Y-101349200D01*
X172607143Y-101349200D02*
X172683333Y-101273009D01*
X172683333Y-101273009D02*
X172721428Y-101196819D01*
X172721428Y-101196819D02*
X172759524Y-101044438D01*
X172759524Y-101044438D02*
X172759524Y-100930152D01*
X172759524Y-100930152D02*
X172721428Y-100777771D01*
X172721428Y-100777771D02*
X172683333Y-100701580D01*
X172683333Y-100701580D02*
X172607143Y-100625390D01*
X172607143Y-100625390D02*
X172492857Y-100587295D01*
X172492857Y-100587295D02*
X172416666Y-100587295D01*
X172416666Y-100587295D02*
X172302381Y-100625390D01*
X172302381Y-100625390D02*
X172264285Y-100663485D01*
X171502381Y-101387295D02*
X171959524Y-101387295D01*
X171730952Y-101387295D02*
X171730952Y-100587295D01*
X171730952Y-100587295D02*
X171807143Y-100701580D01*
X171807143Y-100701580D02*
X171883333Y-100777771D01*
X171883333Y-100777771D02*
X171959524Y-100815866D01*
X170740476Y-101387295D02*
X171197619Y-101387295D01*
X170969047Y-101387295D02*
X170969047Y-100587295D01*
X170969047Y-100587295D02*
X171045238Y-100701580D01*
X171045238Y-100701580D02*
X171121428Y-100777771D01*
X171121428Y-100777771D02*
X171197619Y-100815866D01*
D11*
%TO.C,R1*%
X157621359Y-94895000D02*
X157928641Y-94895000D01*
X157621359Y-95655000D02*
X157928641Y-95655000D01*
%TO.C,R8*%
X169346359Y-99130000D02*
X169653641Y-99130000D01*
X169346359Y-98370000D02*
X169653641Y-98370000D01*
%TO.C,R7*%
X169346359Y-97630000D02*
X169653641Y-97630000D01*
X169346359Y-96870000D02*
X169653641Y-96870000D01*
%TO.C,R9*%
X169737258Y-94977500D02*
X169262742Y-94977500D01*
X169737258Y-96022500D02*
X169262742Y-96022500D01*
%TO.C,R2*%
X157646359Y-93930000D02*
X157953641Y-93930000D01*
X157646359Y-93170000D02*
X157953641Y-93170000D01*
%TO.C,C11*%
X169640580Y-99990000D02*
X169359420Y-99990000D01*
X169640580Y-101010000D02*
X169359420Y-101010000D01*
%TD*%
M02*
